<?xml version="1.0" standalone="no"?>
<!DOCTYPE svg PUBLIC "-//W3C//DTD SVG 20010904//EN"
 "http://www.w3.org/TR/2001/REC-SVG-20010904/DTD/svg10.dtd">
<svg version="1.0" xmlns="http://www.w3.org/2000/svg"
 width="1200.000000pt" height="1200.000000pt" viewBox="0 0 1200.000000 1200.000000"
 preserveAspectRatio="xMidYMid meet">
<metadata>
Created by potrace 1.11, written by Peter Selinger 2001-2013
</metadata>
<g transform="translate(0.000000,1200.000000) scale(0.100000,-0.100000)"
fill="#000000" stroke="none">
<path d="M4851 7885 c-221 -70 -395 -239 -573 -555 -96 -171 -149 -299 -146
-355 0 -11 -9 -56 -20 -100 -18 -68 -37 -166 -56 -277 -22 -131 -29 -519 -13
-688 17 -174 75 -419 134 -570 272 -689 804 -870 1239 -422 36 37 79 88 97
114 17 26 38 48 45 48 7 0 10 5 7 11 -4 5 7 15 24 22 21 7 30 16 26 26 -4 11
-3 11 9 2 10 -9 20 -9 34 -2 13 7 23 7 32 -2 10 -9 11 -9 5 2 -6 11 -3 13 13
9 14 -4 25 -1 30 8 8 14 109 54 137 54 9 0 14 4 11 9 -4 5 4 7 16 3 12 -3 19
-1 15 4 -3 5 12 9 33 9 26 0 36 3 30 10 -6 7 -2 11 10 11 10 0 17 -3 15 -6 -2
-4 2 -7 10 -7 8 0 14 3 13 6 -2 18 4 21 23 10 17 -9 20 -8 14 1 -6 10 -1 12
18 8 16 -3 24 -1 20 5 -4 6 7 8 30 4 19 -3 38 -3 41 1 4 3 12 7 19 9 7 1 41
11 77 21 36 11 99 22 140 25 41 4 76 7 78 7 2 0 1 4 -2 8 -3 5 15 8 39 6 25
-2 45 1 45 6 0 5 15 13 33 18 17 5 31 15 29 21 -1 7 2 10 8 6 6 -3 6 -13 1
-23 -5 -9 -13 -35 -19 -57 -6 -22 -22 -74 -37 -115 -14 -41 -24 -87 -22 -102
2 -16 0 -28 -5 -28 -4 0 -8 4 -8 10 0 5 -8 6 -17 3 -13 -5 -6 -10 25 -21 37
-12 42 -17 35 -35 -4 -12 -7 -34 -8 -49 0 -14 -3 -24 -6 -22 -3 2 -14 -27 -24
-64 -9 -37 -32 -104 -51 -149 -54 -128 -78 -235 -71 -318 4 -39 13 -84 21
-101 9 -17 17 -39 19 -51 1 -11 10 -32 20 -46 9 -15 17 -29 17 -32 0 -14 44
-64 52 -59 5 3 8 2 7 -3 -4 -23 2 -35 17 -29 9 3 25 -1 37 -9 12 -8 26 -15 32
-15 5 0 3 5 -5 11 -11 7 1 9 43 6 31 -3 60 -1 63 4 3 5 10 6 16 2 16 -9 72 -8
88 2 8 5 11 4 6 -3 -7 -12 3 -11 74 8 56 14 136 73 139 103 1 4 10 16 22 28
15 15 18 24 10 33 -8 10 -7 17 6 27 17 13 17 13 3 -5 -13 -17 -13 -19 0 -14
24 7 137 348 124 370 -4 6 -3 8 3 5 6 -4 15 9 21 31 5 20 24 91 41 156 18 66
30 128 28 138 -3 10 -2 18 3 18 4 0 10 13 12 29 3 20 1 28 -6 24 -6 -4 -6 0 1
8 18 22 22 229 5 229 -7 0 -10 -5 -6 -12 5 -7 3 -8 -5 -3 -20 12 4 28 29 20
18 -6 20 -9 9 -16 -8 -5 -9 -9 -4 -9 6 0 20 -3 33 -6 17 -5 22 -2 22 12 0 11
5 36 11 57 7 26 15 37 29 37 11 0 20 -6 20 -12 0 -10 2 -10 9 0 4 8 19 12 32
10 15 -2 23 2 22 9 -2 7 4 10 12 6 12 -4 13 -8 4 -20 -7 -7 -18 -12 -26 -9 -7
3 -13 1 -13 -4 0 -6 4 -10 8 -10 15 0 81 38 76 43 -3 3 4 3 17 0 18 -5 21 -3
15 12 -5 14 -4 16 7 6 12 -9 14 -6 11 15 -1 14 0 23 3 20 4 -3 15 1 25 11 10
9 21 13 25 10 3 -4 1 -7 -6 -7 -7 0 -9 -5 -5 -12 5 -7 3 -8 -6 -3 -9 6 -11 4
-5 -5 6 -10 14 -7 31 13 12 14 24 24 27 21 2 -3 9 9 15 25 6 17 14 31 17 31 3
0 3 -5 -1 -12 -4 -7 -3 -8 4 -4 6 4 9 13 6 20 -3 8 0 17 7 22 8 5 10 3 4 -6
-5 -7 -4 -11 1 -7 17 11 144 272 153 314 5 25 5 41 0 37 -5 -3 -9 -12 -9 -20
0 -25 -32 -114 -40 -114 -5 0 -12 -10 -16 -22 l-7 -23 -9 25 c-9 24 -10 24
-20 5 -15 -28 -14 -28 -37 -20 -12 3 -21 14 -21 23 0 15 -2 15 -11 2 -8 -11
-12 -12 -16 -2 -2 6 -10 9 -15 6 -7 -4 -8 -2 -4 5 4 6 12 9 17 6 5 -4 12 2 16
12 3 10 12 25 19 33 7 8 12 17 12 20 -3 15 15 50 25 50 14 0 46 -20 33 -20 -5
0 -2 -8 5 -17 10 -12 11 -15 1 -9 -10 6 -11 1 -6 -20 6 -23 4 -26 -10 -21 -10
4 -20 7 -23 7 -3 0 2 11 11 25 22 33 6 32 -18 -1 -15 -22 -16 -28 -5 -35 8 -5
9 -9 4 -9 -6 0 -16 5 -23 12 -9 9 -12 8 -12 -4 0 -27 11 -48 23 -41 6 4 7 1 2
-7 -6 -9 -4 -11 4 -6 7 5 10 15 7 23 -3 8 -2 12 3 8 5 -3 11 1 14 7 3 9 9 8
19 -6 13 -17 16 -13 33 50 10 38 21 101 24 141 6 69 21 113 21 60 0 -14 4 -28
9 -31 5 -3 5 11 -1 32 -5 20 -12 49 -15 64 -3 15 -8 26 -12 24 -3 -2 -6 8 -7
23 -1 32 -39 90 -113 174 -27 31 -64 78 -82 103 -17 25 -33 43 -36 40 -3 -2 7
-21 22 -40 15 -20 24 -36 19 -36 -4 0 5 -13 21 -30 16 -16 25 -30 20 -30 -5 0
-4 -5 3 -12 7 -7 12 -17 12 -22 0 -6 -8 1 -17 14 -10 14 -18 29 -18 33 0 5
-13 20 -30 33 -21 18 -24 23 -10 18 13 -4 8 4 -15 25 -19 17 -39 31 -45 31 -5
0 -30 14 -55 30 -45 30 -80 39 -80 20 0 -5 -5 -10 -11 -10 -5 0 -7 4 -4 10 7
11 -21 18 -87 22 -25 2 -44 -1 -41 -5 6 -10 -181 1 -212 13 -13 5 -33 7 -43 5
-11 -2 -37 3 -58 10 -22 8 -59 14 -84 13 -25 0 -35 -3 -22 -5 12 -2 22 -9 22
-14 0 -7 -13 -8 -32 -4 -27 6 -31 5 -20 -6 15 -16 16 -29 1 -29 -5 0 -8 4 -5
9 3 5 -2 12 -11 15 -14 6 -14 8 -2 19 8 6 12 11 10 10 -2 -1 -19 4 -38 12 -20
8 -44 15 -54 15 -11 0 -19 4 -19 9 0 5 -17 12 -37 16 -21 3 -55 18 -75 32 -21
14 -42 22 -49 17 -7 -4 -10 -3 -5 4 3 6 -17 22 -49 38 -30 15 -53 29 -51 31 2
2 28 -5 57 -17 30 -11 59 -20 64 -20 24 1 -57 35 -134 56 -109 30 -188 68
-281 135 -41 30 -127 90 -190 133 -155 106 -186 136 -144 136 8 0 12 5 9 10
-3 6 -13 10 -21 10 -8 0 -13 -4 -9 -9 3 -5 1 -12 -4 -15 -4 -3 -37 21 -72 53
-49 44 -70 73 -88 117 -77 191 -212 380 -344 480 -166 126 -359 165 -536 109z
m354 -29 c119 -46 227 -128 320 -247 27 -34 43 -59 36 -55 -11 7 -13 1 -9 -27
3 -30 2 -34 -11 -24 -11 10 -13 8 -7 -10 4 -12 9 -30 11 -40 2 -10 6 -27 10
-38 6 -18 5 -18 -5 -2 -6 9 -13 26 -15 37 -4 23 -103 147 -168 211 -138 137
-317 189 -478 139 -72 -22 -169 -76 -214 -121 -17 -16 -35 -29 -40 -29 -6 0
-1 7 9 15 11 8 17 17 14 20 -3 3 -44 -36 -92 -86 -47 -51 -84 -94 -81 -97 2
-3 15 8 27 24 35 44 118 129 118 120 0 -4 -21 -31 -46 -60 -61 -68 -117 -150
-176 -261 -26 -49 -48 -86 -48 -82 0 5 5 17 11 28 8 15 7 24 -2 35 -11 14 -15
13 -31 -8 -11 -13 6 26 37 87 59 117 60 119 46 111 -23 -14 -1 26 46 85 128
161 295 272 453 303 14 2 68 3 120 2 74 -3 111 -9 165 -30z m-35 -86 c78 -34
135 -74 205 -147 75 -78 167 -228 190 -311 10 -34 20 -60 24 -58 3 2 6 -7 6
-20 0 -35 -12 -29 -25 14 -7 20 -22 53 -35 72 -12 19 -25 45 -29 58 -4 12 -12
22 -17 22 -6 0 -7 4 -4 10 9 14 -51 123 -83 152 -26 23 -26 23 2 -11 25 -31
76 -122 76 -136 0 -4 -5 -3 -11 1 -6 3 1 -11 15 -33 26 -39 33 -59 43 -118 l5
-30 -24 37 c-38 59 -108 129 -121 121 -7 -4 -7 0 2 10 12 16 8 22 -13 18 -5
-1 -6 5 -3 13 4 9 1 15 -5 13 -6 -1 -13 4 -16 12 -3 9 0 11 9 6 8 -5 12 -6 9
-2 -3 3 -8 5 -11 4 -4 -1 -16 7 -28 17 l-21 19 0 -49 c0 -28 6 -56 13 -63 10
-11 9 -12 -3 -6 -8 4 -24 15 -36 24 -11 9 -6 2 10 -15 17 -17 32 -39 34 -50 2
-10 10 -37 18 -59 15 -38 15 -40 -7 -58 -29 -23 -64 -19 -64 8 0 14 9 22 30
26 17 4 22 7 11 8 -16 1 -17 4 -8 13 7 7 12 16 12 22 0 5 -6 2 -13 -9 -15 -20
-34 -5 -21 17 5 7 3 8 -5 3 -8 -4 -24 4 -42 21 -17 16 -29 22 -29 14 0 -7 -3
-11 -6 -8 -3 4 0 17 7 30 7 12 12 27 11 31 -1 5 2 6 7 3 5 -4 13 -2 16 4 4 7
-8 10 -34 8 -22 -2 -43 -9 -46 -15 -2 -7 -14 -13 -25 -13 -24 0 -24 -3 -5 -41
15 -28 15 -31 -5 -56 -11 -14 -20 -22 -20 -17 0 4 -13 -5 -30 -21 l-30 -29 -1
30 c-1 16 -1 38 -1 49 1 11 -2 27 -5 35 -4 12 -7 11 -13 -5 -4 -11 -4 -24 -1
-30 15 -21 12 -77 -5 -103 -16 -24 -16 -25 -1 -13 15 12 17 11 17 -12 0 -13
-6 -30 -14 -36 -8 -7 -17 -23 -20 -36 -4 -14 -19 -31 -35 -40 l-29 -15 -23 47
c-17 36 -20 49 -11 64 9 13 9 20 0 25 -7 4 -8 3 -4 -4 4 -7 3 -12 -2 -12 -11
0 -22 33 -22 66 0 23 60 86 61 63 0 -8 5 -3 10 10 5 13 19 37 31 55 15 21 17
27 5 17 -21 -17 -21 -6 -2 49 8 23 15 46 15 51 0 15 -19 10 -40 -11 -25 -25
-14 -27 13 -2 19 16 20 16 14 -1 -4 -10 -14 -43 -23 -73 -15 -54 -68 -129 -84
-119 -6 4 -2 37 13 102 2 7 14 25 28 40 23 27 23 27 -9 -1 -17 -17 -32 -38
-32 -48 0 -11 -4 -17 -9 -13 -5 3 -13 0 -17 -6 -5 -8 -3 -9 6 -4 10 6 12 -1 7
-33 -3 -26 -1 -42 5 -42 7 0 6 -5 -1 -14 -8 -9 -8 -21 -1 -40 5 -14 7 -26 5
-26 -2 0 0 -11 5 -25 5 -14 6 -25 1 -25 -5 0 -12 17 -17 38 -10 48 -8 41 -23
85 -10 30 -10 41 0 53 10 12 9 13 -5 8 -10 -4 -16 -1 -16 8 0 8 -7 23 -15 34
-13 17 -13 14 0 -25 11 -33 12 -47 4 -58 -9 -10 -9 -12 3 -8 15 6 16 3 49
-127 10 -39 8 -49 -19 -108 l-30 -65 -15 35 c-17 40 -15 49 8 30 9 -7 18 -10
21 -7 4 3 -10 14 -30 23 -42 20 -44 31 -15 70 l21 29 -25 -27 c-16 -17 -27
-23 -30 -15 -2 7 -6 -3 -9 -20 -2 -18 -2 -33 1 -33 3 0 7 -18 8 -40 2 -22 -2
-40 -7 -40 -5 0 -6 7 -3 17 4 10 2 14 -4 10 -7 -5 -9 0 -6 13 3 11 0 34 -6 51
-8 24 -8 36 0 46 7 7 9 16 5 20 -3 3 -6 1 -6 -6 0 -7 -4 -10 -9 -7 -5 3 -12
36 -17 73 -4 38 -8 73 -9 78 -1 6 -3 38 -3 73 -1 34 -6 62 -11 62 -4 0 -14
-20 -21 -46 -16 -55 -7 -179 16 -244 9 -25 16 -55 16 -68 0 -13 3 -20 6 -17 3
3 25 -40 48 -95 35 -82 41 -106 34 -130 -7 -23 -5 -32 8 -41 15 -9 15 -10 0
-5 -12 3 -18 -4 -23 -31 l-6 -35 -30 28 c-28 27 -28 28 -12 53 15 24 15 25 0
12 -14 -11 -17 -11 -18 0 -1 8 -1 18 0 22 1 5 -3 6 -8 3 -5 -3 -7 -15 -4 -26
3 -12 0 -20 -6 -20 -7 0 -9 5 -5 12 4 6 3 8 -3 5 -6 -4 -18 4 -27 17 -19 30
-7 75 33 121 25 28 25 29 2 10 l-25 -20 26 47 c15 26 22 50 17 53 -12 8 -31
-4 -24 -15 3 -5 0 -12 -6 -15 -5 -4 -8 -13 -5 -21 3 -8 1 -14 -4 -14 -5 0 -14
-18 -20 -40 -6 -21 -17 -46 -26 -54 -8 -9 -12 -21 -8 -27 4 -6 -14 1 -40 16
-26 15 -49 25 -51 23 -6 -6 57 -88 67 -88 4 0 8 7 8 15 0 8 5 15 10 15 11 0
13 -13 4 -23 -5 -5 -10 -33 -16 -104 -2 -18 -7 -16 -28 9 -14 18 -16 27 -7 43
9 18 9 19 -6 6 -11 -9 -17 -10 -17 -2 0 6 -5 11 -11 11 -8 0 -8 -5 1 -15 7 -8
10 -22 6 -30 -3 -10 -2 -13 4 -10 16 10 51 -37 45 -62 -6 -26 -17 -173 -18
-230 0 -23 -4 -40 -8 -37 -5 3 -9 16 -9 30 0 13 -4 24 -9 24 -5 0 -3 -29 5
-63 14 -70 22 -263 11 -261 -5 1 -22 8 -39 15 l-31 13 6 95 c7 104 10 128 33
211 8 30 16 62 17 70 1 8 7 18 12 22 6 5 3 8 -6 8 -11 0 -19 -12 -23 -32 -3
-18 -10 -55 -16 -83 -6 -27 -13 -65 -16 -84 -3 -18 -7 -42 -9 -53 -2 -10 -5
-47 -6 -82 -1 -42 -6 -63 -13 -60 -7 3 -10 33 -8 87 2 45 1 79 -2 76 -3 -3 -6
-35 -7 -72 -1 -52 -5 -67 -16 -67 -12 0 -14 12 -11 55 2 43 1 52 -8 40 -7 -9
-10 -32 -7 -51 5 -35 4 -35 -19 -23 -12 6 -47 29 -77 50 -30 22 -56 37 -59 34
-7 -7 35 -39 100 -77 45 -26 58 -39 59 -58 3 -63 9 -138 13 -165 2 -16 5 -43
5 -60 1 -23 4 -26 11 -15 5 8 7 28 5 45 -12 78 -24 209 -20 213 10 11 22 -48
25 -118 1 -41 3 -94 5 -117 2 -31 -1 -43 -11 -43 -14 0 -14 -5 8 -119 7 -40
13 -50 21 -42 9 9 8 14 -2 20 -8 6 -12 19 -9 35 3 15 1 29 -3 32 -13 8 -11 64
2 64 5 0 8 -4 5 -8 -3 -5 -1 -24 4 -43 16 -58 22 -93 22 -116 0 -13 4 -23 9
-23 5 0 8 -12 7 -26 -2 -19 -7 -24 -20 -21 -10 3 -21 0 -25 -5 -3 -7 -1 -8 5
-4 7 4 12 2 12 -3 0 -6 -5 -11 -11 -11 -6 0 -8 -8 -5 -17 5 -15 4 -15 -9 1
-17 23 -20 14 -5 -15 6 -10 7 -19 2 -19 -10 0 -54 -112 -47 -119 3 -2 5 2 5
10 0 12 2 11 11 -1 9 -12 10 -11 6 8 -3 12 -1 22 4 22 5 0 9 8 9 18 1 9 6 27
14 40 11 20 14 21 25 8 7 -8 10 -24 7 -34 -4 -11 -2 -30 4 -43 10 -23 10 -23
5 4 -3 15 1 40 10 57 17 32 20 55 4 27 -9 -16 -12 -16 -26 -2 -11 12 -12 19
-4 29 6 7 8 15 5 19 -3 3 3 10 14 16 22 12 32 6 32 -21 0 -10 7 -30 16 -44 14
-20 15 -30 6 -49 -6 -14 -8 -24 -4 -24 21 3 30 -5 46 -42 12 -26 16 -52 12
-72 -4 -20 -3 -27 3 -18 11 17 25 -3 17 -24 -3 -9 0 -12 9 -9 8 3 11 13 9 22
-3 9 10 -1 30 -23 24 -27 34 -46 30 -60 -4 -15 -3 -16 4 -6 13 19 34 4 27 -19
-3 -10 -1 -21 5 -25 6 -3 7 -12 3 -18 -4 -7 -8 -17 -9 -23 -1 -6 -5 -22 -8
-35 -3 -13 4 -3 15 24 20 44 48 63 50 35 1 -7 2 -17 4 -23 1 -5 3 -14 3 -19 1
-5 8 -3 16 3 11 9 21 6 45 -15 17 -14 31 -23 31 -19 0 4 6 2 14 -5 8 -6 12
-19 9 -28 -4 -11 2 -8 15 7 27 30 27 34 3 26 -13 -4 -23 0 -30 12 -6 10 -11
14 -11 10 0 -14 -60 26 -60 40 0 11 29 82 48 117 3 5 0 6 -7 2 -13 -8 -35 -56
-33 -68 1 -5 -5 -8 -14 -8 -12 0 -15 -6 -11 -22 l6 -21 -21 20 c-15 15 -18 27
-13 44 8 23 8 23 16 4 7 -17 8 -17 6 6 0 14 12 42 28 63 28 37 30 37 39 17 11
-26 21 -27 36 -3 11 16 11 16 6 -1 -3 -11 -2 -15 4 -12 6 3 10 -1 10 -11 0
-13 -3 -14 -15 -4 -8 7 -15 8 -15 2 0 -10 24 -33 31 -29 2 1 -2 -4 -10 -10
-12 -11 -12 -13 -1 -13 16 0 60 -39 60 -53 0 -5 -7 -6 -16 -3 -8 3 -12 2 -9
-4 3 -6 13 -10 21 -10 17 0 53 -38 54 -56 0 -14 30 -40 30 -27 0 5 -5 14 -12
21 -9 9 -9 12 0 12 6 0 16 -9 23 -21 9 -17 7 -25 -12 -45 -12 -13 -17 -24 -11
-24 7 0 12 5 12 12 0 6 3 9 6 5 4 -3 2 -20 -4 -36 -6 -17 -8 -31 -4 -31 5 0
13 21 20 46 7 26 23 61 35 78 12 17 20 37 19 44 -2 8 1 11 6 8 11 -6 29 11 34
33 5 21 36 51 52 51 18 0 32 -20 19 -29 -5 -3 -14 -24 -21 -46 -14 -49 -79
-151 -93 -147 -6 1 -8 -1 -5 -6 3 -5 -6 -15 -20 -22 -13 -8 -23 -19 -20 -26 3
-7 -4 -23 -14 -36 -11 -13 -19 -18 -20 -11 0 6 5 15 10 18 13 8 13 35 0 35 -6
0 -10 -8 -8 -17 2 -11 -2 -17 -10 -15 -8 1 -11 -2 -6 -9 4 -7 -1 -18 -11 -26
-15 -10 -15 -13 -4 -13 8 0 24 7 35 14 17 13 21 13 38 -7 l18 -22 -15 26 c-15
25 -14 28 6 55 12 15 31 37 43 48 11 12 35 42 53 69 35 51 46 53 56 7 7 -30
19 -38 30 -20 3 6 1 10 -4 10 -13 0 -15 77 -2 85 28 17 36 -87 11 -136 -26
-49 -76 -106 -101 -114 -10 -4 -19 -11 -19 -16 0 -10 16 -2 58 27 12 9 22 14
22 11 0 -13 -121 -83 -180 -105 -132 -48 -293 -21 -393 66 -125 109 -177 166
-171 187 4 15 3 16 -4 6 -8 -11 -12 -10 -21 7 -6 11 -11 27 -11 36 0 8 -4 18
-10 21 -6 3 -8 -2 -4 -12 3 -10 -16 22 -41 70 -25 48 -43 92 -40 97 4 6 2 10
-3 10 -16 0 -80 185 -111 325 -22 98 -39 211 -50 335 -8 88 -6 433 3 490 2 14
7 56 11 95 4 38 8 72 10 75 1 3 6 28 9 55 4 28 21 106 37 174 109 443 324 784
569 898 107 50 241 55 340 13z m490 -371 c27 -53 50 -103 50 -110 -1 -8 -7 -3
-15 11 -7 14 -17 23 -22 21 -13 -6 -83 142 -77 163 5 14 3 16 -7 11 -8 -5 -11
-5 -7 0 4 4 3 17 -3 29 -31 64 37 -41 81 -125z m-320 60 c0 -6 -4 -7 -10 -4
-5 3 -10 11 -10 16 0 6 5 7 10 4 6 -3 10 -11 10 -16z m-995 -76 c-39 -72 -69
-112 -40 -53 28 55 66 120 72 120 3 0 -12 -30 -32 -67z m1005 47 c10 -5 21
-21 24 -34 5 -19 11 -24 24 -19 14 5 15 4 6 -8 -6 -8 -9 -27 -7 -44 6 -44 16
-46 11 -2 -2 20 0 37 5 37 12 0 77 -70 93 -102 8 -16 18 -28 23 -28 4 0 8 -6
8 -12 1 -7 4 -33 7 -58 6 -47 2 -45 -9 4 -3 15 -8 26 -11 23 -3 -3 0 -25 6
-48 23 -89 22 -85 11 -69 -9 11 -10 3 -5 -30 4 -25 3 -42 -1 -38 -4 4 -9 26
-11 50 -3 46 -5 56 -26 133 -15 56 -57 135 -71 135 -5 0 -2 -11 7 -25 11 -17
13 -25 4 -25 -7 0 -6 -5 4 -12 23 -19 29 -45 12 -59 -12 -10 -16 -9 -21 9 -3
12 -10 22 -15 22 -6 0 -7 11 -4 25 5 18 3 23 -7 19 -15 -5 -59 69 -75 129 -11
40 -10 42 18 27z m-149 -39 c-7 -5 -14 -22 -14 -37 0 -16 -2 -23 -4 -16 -4 10
-8 10 -21 0 -13 -11 -14 -11 -8 0 4 7 3 19 -3 26 -9 10 -7 16 6 21 10 5 21 9
25 9 3 1 10 4 14 9 4 4 10 5 13 1 3 -3 -1 -9 -8 -13z m430 -112 c40 -103 61
-170 55 -177 -3 -3 -85 214 -101 268 -16 55 8 6 46 -91z m-958 26 c7 -87 26
-212 38 -242 5 -13 6 -23 4 -23 -17 0 -56 152 -60 232 -3 57 2 115 10 106 1
-2 5 -34 8 -73z m961 29 c3 -8 2 -12 -4 -9 -6 3 -10 10 -10 16 0 14 7 11 14
-7z m-381 -37 c-3 -5 -1 -7 4 -4 6 4 16 0 22 -7 14 -17 -2 -31 -24 -22 -8 3
-15 1 -15 -4 0 -6 5 -10 10 -10 6 0 10 -5 10 -11 0 -5 -4 -7 -10 -4 -5 3 -10
-1 -10 -10 0 -11 5 -15 15 -12 8 4 17 1 21 -5 4 -7 3 -8 -4 -4 -7 4 -12 2 -12
-3 0 -6 -7 -11 -16 -11 -8 0 -13 4 -10 8 2 4 -4 13 -15 20 -21 14 -24 9 -9
-18 8 -15 6 -22 -7 -30 -17 -11 -17 -11 0 -6 14 4 22 -4 36 -37 18 -41 18 -43
-1 -80 l-19 -38 -30 37 -29 37 21 36 c14 24 15 30 4 16 -17 -20 -17 -20 -12 1
2 12 1 28 -4 35 -7 11 -9 9 -10 -6 -3 -40 -4 -45 -14 -42 -5 1 -9 5 -7 10 1 4
-2 7 -8 7 -15 0 -12 37 5 53 8 8 11 17 8 21 -4 3 2 6 11 6 12 0 16 -5 12 -15
-3 -8 -1 -15 4 -15 6 0 10 9 10 20 0 11 5 21 10 21 6 1 15 3 20 4 6 1 14 3 18
4 9 1 8 45 -1 49 -26 9 -34 -13 -12 -31 6 -5 4 -7 -5 -4 -20 6 -17 64 5 79 13
9 46 -22 38 -35z m117 -19 c0 -10 4 -18 9 -18 5 0 11 -7 15 -15 3 -9 0 -15 -8
-15 -7 0 -18 17 -25 38 -7 20 -15 44 -17 52 -3 9 1 7 10 -4 9 -11 16 -28 16
-38z m-199 1 c-6 -13 -19 -35 -30 -49 -20 -24 -21 -24 -21 -4 0 36 -12 35 -37
-2 -23 -33 -23 -37 -9 -53 9 -10 13 -21 9 -24 -3 -4 -1 -7 6 -7 21 0 9 -63
-12 -66 -13 -2 -17 2 -13 12 3 8 9 21 13 31 4 10 3 14 -4 10 -6 -4 -14 -1 -16
5 -3 7 -6 0 -6 -15 -1 -19 -5 -26 -13 -21 -7 4 -8 3 -4 -5 8 -12 -72 -146 -82
-136 -3 3 2 13 12 24 15 16 15 19 1 31 -19 16 -19 36 1 44 12 5 14 1 9 -15 -5
-15 -4 -19 4 -15 6 4 11 14 11 22 0 8 4 14 9 14 5 0 15 15 21 34 6 19 18 40
26 47 10 8 13 21 8 42 -5 23 -1 35 22 58 15 15 31 26 35 23 4 -2 14 5 23 17 8
12 19 18 25 14 6 -3 11 -1 11 6 0 7 2 10 5 7 3 -3 1 -16 -4 -29z m519 -35 c0
-7 -7 -15 -16 -18 -9 -3 -12 -2 -9 4 4 6 -1 24 -9 42 -9 17 -16 34 -16 37 1
11 50 -54 50 -65z m-1339 33 c-10 -9 -11 -8 -5 6 3 10 9 15 12 12 3 -3 0 -11
-7 -18z m-23 -42 c-6 -14 -13 -23 -15 -21 -5 5 15 46 22 46 3 0 -1 -11 -7 -25z
m842 5 c0 -5 -5 -10 -11 -10 -5 0 -7 5 -4 10 3 6 8 10 11 10 2 0 4 -4 4 -10z
m425 -143 c17 -77 20 -131 6 -107 -8 15 -52 238 -50 256 2 15 29 -76 44 -149z
m-487 113 c-1 -30 -13 -40 -21 -17 -4 11 9 47 18 47 2 0 3 -13 3 -30z m-761
-17 c-34 -66 -114 -335 -132 -443 -3 -19 -10 -60 -15 -91 -6 -30 -13 -82 -16
-115 -3 -32 -10 -90 -14 -129 -13 -120 -4 -559 14 -660 26 -148 38 -195 49
-188 6 3 7 1 3 -6 -4 -6 -12 -9 -17 -6 -13 9 -11 -1 10 -40 10 -19 21 -32 24
-29 3 3 3 -4 0 -17 -4 -14 -2 -20 4 -16 7 5 9 -1 5 -15 -5 -19 -10 -12 -34 41
-15 35 -26 72 -23 84 3 12 -2 42 -10 67 -15 45 -15 24 0 -46 5 -22 4 -25 -4
-14 -20 28 -11 -1 26 -87 33 -77 38 -84 50 -67 7 10 13 13 13 8 0 -6 -6 -16
-12 -22 -10 -10 -10 -17 0 -33 18 -29 55 -126 44 -114 -21 21 -88 153 -115
225 -15 41 -25 62 -22 45 4 -16 17 -56 30 -88 13 -32 22 -72 20 -88 -2 -16 0
-27 5 -24 5 3 48 -51 96 -119 48 -69 90 -123 94 -121 4 3 37 -31 73 -74 71
-85 126 -133 197 -174 100 -57 233 -73 340 -42 30 9 66 18 79 19 13 2 29 10
36 19 7 9 15 14 18 10 4 -3 7 -1 7 5 0 7 7 12 15 12 8 0 19 9 25 20 6 11 14
19 18 19 18 -3 33 2 28 9 -3 5 11 23 29 41 19 18 35 28 35 22 0 -6 -11 -18
-25 -27 -15 -10 -25 -26 -25 -40 0 -13 -3 -23 -7 -22 -12 4 -83 -53 -83 -66 0
-6 7 -2 15 8 8 11 15 16 15 12 0 -4 12 6 26 21 23 26 25 26 19 6 -7 -26 2 -46
17 -37 7 4 6 9 -2 14 -8 5 -4 16 17 35 15 16 20 23 11 16 -12 -9 -18 -10 -18
-3 0 11 40 38 51 34 4 -1 5 7 2 16 -2 10 7 27 21 41 14 14 26 21 26 17 0 -4
12 6 26 21 14 15 22 21 18 13 -13 -27 -36 -50 -45 -44 -5 3 -9 -2 -9 -10 0 -8
-8 -20 -17 -25 -10 -6 -13 -11 -6 -11 6 0 15 4 18 10 3 5 16 15 28 21 19 10
18 7 -6 -18 -15 -16 -24 -33 -20 -37 5 -4 4 -6 -2 -4 -5 2 -10 -1 -10 -7 0 -5
4 -9 8 -7 5 1 6 -2 2 -8 -5 -8 -11 -8 -19 -1 -9 8 -20 3 -40 -18 -15 -16 -23
-30 -18 -32 6 -2 -1 -13 -16 -23 -14 -11 -22 -14 -18 -8 4 7 3 12 -3 12 -5 0
-14 -6 -18 -14 -15 -27 -84 -58 -133 -62 -28 -2 -50 -1 -50 1 0 2 15 18 33 36
l32 32 -42 -32 c-59 -45 -61 -52 -14 -50 63 4 58 -7 -11 -22 -209 -46 -400 16
-568 184 -102 101 -241 310 -225 337 3 5 2 10 -3 10 -10 0 -72 132 -72 153 1
6 7 -3 15 -20 17 -40 26 -42 21 -5 -6 47 -17 64 -31 52 -10 -8 -15 -8 -21 1
-4 7 -3 9 4 5 20 -12 23 12 6 48 -10 19 -20 34 -23 32 -3 -2 -7 6 -8 17 0 12
-13 65 -28 117 -14 52 -29 133 -32 180 -3 47 -11 88 -17 92 -17 11 -17 480 0
598 7 52 16 113 19 135 14 102 57 285 66 279 12 -7 23 18 25 52 0 16 14 57 30
90 16 32 28 62 26 67 -1 4 2 7 7 7 4 0 8 -13 7 -29 -1 -16 -4 -27 -8 -25 -4 3
-10 -8 -14 -23 -4 -15 -15 -44 -25 -64 -13 -26 -14 -36 -5 -36 7 0 21 24 31
54 11 33 21 49 26 41 8 -13 -36 -108 -51 -108 -6 0 -10 -7 -10 -16 0 -31 24 1
67 93 25 52 43 100 40 107 -3 7 -1 19 5 27 8 11 9 10 4 -4 -10 -32 10 -9 29
33 10 22 20 38 22 36 3 -2 -2 -17 -10 -33z m1021 20 c-1 -5 5 -22 14 -38 15
-29 15 -31 -7 -57 l-23 -26 -18 34 c-14 26 -16 36 -6 46 21 21 13 29 -11 13
-13 -8 -27 -12 -30 -8 -4 3 -7 1 -7 -5 0 -7 -9 -12 -20 -12 -20 0 -29 19 -10
21 15 2 22 4 50 16 14 6 34 13 45 16 11 2 21 5 23 6 1 0 1 -2 0 -6z m49 -9 c3
-9 7 -26 8 -38 1 -12 6 -30 10 -40 6 -13 4 -21 -3 -24 -7 -2 -12 -9 -12 -15 0
-6 -10 -22 -22 -36 -13 -14 -15 -19 -5 -12 11 9 17 10 17 2 0 -6 -4 -11 -10
-11 -5 0 -13 0 -17 0 -5 0 -8 6 -8 13 0 6 -4 17 -8 23 -3 6 2 19 13 29 11 10
17 23 13 29 -4 6 1 5 10 -3 15 -12 17 -11 17 2 0 9 -5 19 -10 22 -6 4 -8 10
-5 15 3 5 1 11 -4 15 -6 3 -7 13 -4 22 4 11 3 14 -5 9 -7 -4 -12 -2 -12 3 0
17 30 13 37 -5z m388 -29 c22 -19 37 -36 35 -39 -5 -5 -47 30 -69 57 -21 27
-8 20 34 -18z m-187 -2 c36 -95 97 -373 106 -480 3 -35 7 -67 10 -71 3 -5 -1
-18 -9 -28 -8 -10 -14 -28 -14 -39 0 -18 1 -18 9 3 5 12 12 22 14 22 5 0 1
-230 -4 -275 -2 -12 -5 -7 -10 15 -5 25 -7 11 -7 -50 -1 -47 -8 -116 -17 -153
-21 -92 -19 -108 5 -27 l19 65 -4 -65 c-3 -35 -9 -66 -15 -68 -6 -2 -11 -18
-12 -35 0 -36 -38 -183 -38 -152 0 11 3 37 8 57 5 22 5 36 0 32 -5 -3 -9 2 -9
11 0 9 5 13 10 10 6 -3 10 -2 10 3 0 5 2 25 5 43 4 30 4 31 -5 9 -6 -17 -7 -1
-2 50 3 41 6 103 7 137 0 33 3 56 7 50 4 -7 8 4 8 23 0 19 3 45 6 58 5 18 3
21 -10 16 -9 -3 -16 -1 -16 4 0 6 10 12 22 14 20 3 21 8 19 93 -1 49 -4 92 -6
95 -6 10 -18 93 -20 145 -2 46 -12 142 -20 190 -2 11 -4 33 -4 48 -1 16 -5 26
-10 23 -5 -4 -7 3 -4 14 7 27 -27 189 -45 218 -8 12 -10 22 -4 22 5 0 14 -12
20 -27z m-131 0 c2 -25 11 -80 22 -133 11 -55 8 -60 -15 -24 -14 20 -15 29 -6
32 6 2 12 8 12 13 0 6 -4 8 -8 5 -5 -3 -9 0 -10 7 -3 38 -10 65 -21 86 -7 13
-8 21 -3 17 6 -3 13 -2 17 4 9 14 10 13 12 -7z m-1211 -15 c3 -4 -1 -5 -10 -4
-8 1 -18 5 -22 8 -3 4 1 5 10 4 8 -1 18 -5 22 -8z m1011 -32 l-12 -25 -12 22
c-10 18 -9 23 5 28 26 10 31 2 19 -25z m-1006 -1 c5 4 6 -1 2 -10 -5 -13 -7
-14 -14 -3 -5 7 -8 18 -8 23 0 6 3 4 6 -3 2 -6 9 -10 14 -7z m644 -94 c-11
-11 -27 19 -31 60 l-5 44 20 -49 c11 -28 18 -52 16 -55z m409 38 c-3 -5 -10
-6 -16 -3 -7 5 -9 1 -5 -9 3 -10 4 -17 1 -17 -10 0 -23 51 -17 66 6 15 9 14
25 -6 10 -12 15 -26 12 -31z m446 4 c0 -22 -8 -14 -19 20 -10 29 -9 30 4 13 8
-11 15 -26 15 -33z m-640 0 c0 -4 -9 -19 -20 -33 -16 -22 -18 -22 -15 -5 2 11
4 33 4 48 1 25 3 27 16 13 8 -8 15 -18 15 -23z m325 18 c3 -5 1 -12 -5 -16 -5
-3 -10 1 -10 9 0 18 6 21 15 7z m-572 -48 c7 -35 -7 -51 -28 -33 -17 14 -20
40 -4 40 5 0 7 5 4 10 -3 6 0 10 8 10 8 0 17 -12 20 -27z m167 -12 c0 -22 3
-48 7 -58 7 -17 6 -17 -11 0 -26 25 -33 21 -9 -5 16 -17 19 -29 12 -45 -5 -13
-4 -25 1 -28 6 -4 10 2 11 12 0 14 3 12 10 -6 18 -46 -8 -45 -35 1 -30 52 -32
74 -9 100 15 17 15 18 1 13 -13 -5 -15 -2 -11 14 3 11 9 18 14 15 5 -3 6 2 3
10 -3 9 -1 16 5 16 6 0 11 -17 11 -39z m34 27 c-3 -4 -9 -8 -15 -8 -5 0 -9 4
-9 8 0 5 7 9 15 9 8 0 12 -4 9 -9z m52 -65 c-3 -3 -12 -3 -21 1 -14 5 -14 9 2
38 l18 33 3 -33 c2 -19 1 -36 -2 -39z m105 44 c-10 -9 -11 -8 -5 6 3 10 9 15
12 12 3 -3 0 -11 -7 -18z m45 -14 c-3 -4 -6 0 -6 7 0 9 -5 7 -15 -6 -18 -23
-20 -11 -3 16 11 17 14 17 21 4 5 -9 6 -18 3 -21z m75 -57 c-10 -30 -10 -30
-6 9 3 35 2 38 -10 22 -13 -18 -14 -18 -24 2 -9 15 -8 26 1 40 11 19 13 18 31
-11 15 -26 17 -37 8 -62z m50 41 c-25 -39 -27 -30 -4 18 10 20 19 32 21 26 2
-6 -6 -26 -17 -44z m-599 -65 c4 -2 4 -11 1 -20 -4 -12 -3 -14 5 -7 6 6 13 24
16 40 5 21 4 24 -2 11 -12 -27 -22 -7 -11 22 8 21 9 22 29 5 22 -19 27 -28 8
-17 -7 4 -8 3 -4 -4 8 -13 -23 -72 -36 -72 -5 0 -13 10 -17 23 -9 22 -9 22
-24 -23 -4 -9 -6 -6 -6 8 -1 12 -5 22 -11 22 -5 0 -6 7 -3 17 4 11 3 14 -5 9
-7 -4 -12 -2 -12 3 0 19 20 12 31 -11 9 -22 9 -22 4 2 -2 14 -5 29 -5 33 0 5
-3 6 -7 4 -5 -3 -8 11 -9 31 l-1 36 26 -55 c14 -30 29 -55 33 -57z m363 50
c-2 -7 0 -10 5 -7 15 9 12 -8 -5 -31 -17 -22 -16 -24 -21 41 -3 46 -2 48 12
30 8 -11 12 -25 9 -33z m-235 2 c0 -14 -6 -24 -14 -24 -17 0 -28 48 -12 53 18
7 26 -2 26 -29z m149 9 l13 -28 -21 22 c-23 24 -26 33 -13 33 5 0 14 -12 21
-27z m381 -45 c-17 -54 -25 -64 -25 -32 0 13 3 24 6 24 4 0 7 6 6 13 -1 44 3
61 15 49 9 -9 8 -22 -2 -54z m364 46 c3 -8 2 -12 -4 -9 -6 3 -10 10 -10 16 0
14 7 11 14 -7z m-554 -3 c0 -5 -7 -16 -15 -24 -8 -8 -12 -17 -10 -21 3 -3 2
-4 -2 -1 -12 10 -12 39 0 47 16 10 27 10 27 -1z m-380 -10 c0 -5 3 -18 6 -28
5 -16 4 -16 -10 1 -18 23 -20 36 -6 36 6 0 10 -4 10 -9z m420 -12 c0 -6 -4 -7
-10 -4 -5 3 -7 0 -5 -7 3 -8 -1 -22 -9 -33 -12 -17 -17 -18 -28 -6 -11 12 -10
13 6 7 17 -6 17 -5 5 11 -12 14 -12 16 0 9 9 -6 12 -5 9 5 -2 7 0 19 6 25 12
13 26 9 26 -7z m725 1 c10 -11 16 -20 13 -20 -3 0 -13 9 -23 20 -10 11 -16 20
-13 20 3 0 13 -9 23 -20z m-511 -23 c4 -19 3 -26 -4 -22 -5 3 -10 18 -10 32 0
32 5 28 14 -10z m-109 -6 c-3 -12 -11 -19 -16 -16 -5 4 -9 -8 -9 -24 0 -17 -5
-31 -11 -31 -14 0 -4 43 18 76 18 28 28 25 18 -5z m188 14 c-3 -9 -8 -14 -10
-11 -3 3 -2 9 2 15 9 16 15 13 8 -4z m-727 -22 c-3 -8 -1 -11 4 -8 21 13 19
-22 -4 -90 l-23 -70 -22 35 c-11 19 -19 44 -16 55 3 11 2 14 -1 6 -5 -11 -8
-11 -15 0 -7 12 -9 12 -9 0 0 -7 9 -29 21 -47 11 -19 17 -39 13 -45 -4 -7 -3
-9 4 -5 14 8 25 -10 16 -26 -9 -13 -15 -48 -17 -90 0 -15 -7 -30 -15 -33 -11
-4 -13 1 -9 17 3 13 9 40 12 61 4 20 11 40 16 43 11 6 12 25 2 22 -5 -2 -8 -1
-9 2 -1 3 -11 24 -23 47 -11 23 -21 49 -21 56 0 23 53 18 72 -6 10 -12 18 -17
18 -10 0 6 -4 15 -10 18 -16 10 -12 21 13 33 21 11 20 11 -5 6 -32 -7 -33 -5
-17 30 12 26 35 25 25 -1z m111 5 c-3 -8 -6 -5 -6 6 -1 11 2 17 5 13 3 -3 4
-12 1 -19z m125 5 c17 -15 25 -53 12 -53 -3 0 -17 9 -31 20 -14 11 -20 20 -14
20 7 0 9 5 6 10 -4 6 -11 7 -17 4 -7 -4 -8 -2 -4 4 10 17 26 15 48 -5z m81
-21 c-4 -9 -11 -20 -17 -24 -8 -5 -8 -10 0 -18 9 -9 13 -5 18 14 7 28 26 36
26 10 0 -26 -20 -55 -33 -47 -7 4 -15 8 -19 8 -11 0 -10 14 3 53 6 18 15 30
19 27 5 -3 6 -13 3 -23z m119 -16 c-9 -19 -19 -33 -24 -30 -13 8 -10 18 11 41
11 12 17 24 13 29 -4 4 -2 4 4 1 9 -5 7 -16 -4 -41z m235 -8 c-2 -13 -4 -5 -4
17 -1 22 1 32 4 23 2 -10 2 -28 0 -40z m693 -76 c13 -13 13 -14 0 -7 -39 20
-150 98 -166 117 -19 22 139 -82 166 -110z m-1239 45 c27 -57 30 -85 8 -71 -5
3 -7 15 -4 27 5 17 4 19 -4 7 -9 -13 -12 -12 -25 5 -17 23 -19 27 -20 72 -1
42 11 32 45 -40z m-54 47 c-3 -3 -12 -4 -19 -1 -8 3 -5 6 6 6 11 1 17 -2 13
-5z m177 -77 c-3 -11 -2 -17 3 -14 6 4 10 -15 10 -42 0 -41 -3 -47 -14 -36
-16 17 -17 39 -1 29 8 -5 9 -2 5 10 -4 10 -7 23 -7 29 0 8 -3 8 -9 -1 -6 -10
-12 -5 -21 18 -11 27 -11 33 1 41 11 7 11 9 -3 9 -10 0 -18 8 -18 17 0 13 7
10 30 -12 21 -20 28 -35 24 -48z m137 56 c13 -16 12 -17 -3 -4 -10 7 -18 15
-18 17 0 8 8 3 21 -13z m266 -15 c-3 -7 -5 -2 -5 12 0 14 2 19 5 13 2 -7 2
-19 0 -25z m81 -23 c0 -16 -2 -15 -8 5 -11 34 -11 60 0 35 5 -11 8 -29 8 -40z
m417 36 c3 -5 2 -12 -3 -15 -5 -3 -9 1 -9 9 0 17 3 19 12 6z m-1105 -18 c0 -5
-3 -18 -6 -30 -8 -28 -23 -30 -21 -3 1 11 5 20 10 20 4 0 5 5 2 10 -3 6 -1 10
4 10 6 0 11 -3 11 -7z m413 -18 c-3 -9 -8 -14 -10 -11 -3 3 -2 9 2 15 9 16 15
13 8 -4z m534 -7 c-3 -8 -6 -5 -6 6 -1 11 2 17 5 13 3 -3 4 -12 1 -19z m57 6
c3 -8 2 -12 -4 -9 -6 3 -10 10 -10 16 0 14 7 11 14 -7z m-944 -56 c0 -10 5
-17 11 -15 20 4 20 -18 0 -40 -13 -14 -16 -24 -9 -31 6 -6 5 -17 -4 -33 -7
-13 -14 -25 -15 -27 -5 -10 -48 24 -73 59 -25 35 -27 44 -18 70 5 16 14 29 19
29 5 0 4 -12 -1 -26 -6 -14 -10 -33 -9 -42 0 -10 5 -6 11 11 5 15 14 27 19 27
6 0 8 -4 5 -8 -3 -5 4 -25 14 -45 23 -43 25 -51 8 -41 -10 6 -10 4 0 -7 16
-18 40 4 25 23 -7 9 -5 21 3 38 8 14 14 21 14 16 0 -5 2 -7 5 -4 3 2 -6 27
-20 54 -13 27 -24 43 -24 36 -1 -7 6 -26 14 -42 13 -25 13 -32 0 -57 -8 -15
-15 -25 -15 -21 0 3 -3 14 -7 24 -4 12 -3 15 5 10 18 -11 14 2 -8 26 -18 19
-18 23 -3 51 l15 30 19 -24 c10 -13 19 -32 19 -41z m284 21 c-10 -17 -19 -9
-19 16 0 22 1 23 12 9 7 -9 10 -21 7 -25z m87 3 c-6 -2 -8 -9 -5 -14 4 -7 2
-8 -5 -4 -6 4 -10 10 -8 14 2 4 8 16 12 27 8 20 8 20 13 0 2 -10 -1 -21 -7
-23z m68 -9 c1 -7 -3 -13 -9 -13 -5 0 -6 7 -3 17 4 10 2 14 -4 10 -7 -5 -9 1
-5 15 5 21 6 21 13 2 4 -10 8 -25 8 -31z m668 11 c-7 -7 -37 7 -37 17 0 6 9 5
21 -1 11 -7 19 -14 16 -16z m-1534 -18 c-6 -14 -16 -10 -32 14 l-16 25 25 -16
c14 -9 24 -19 23 -23z m604 12 c-3 -8 -6 -5 -6 6 -1 11 2 17 5 13 3 -3 4 -12
1 -19z m382 -20 c-1 -39 -2 -41 -8 -13 -4 17 -5 36 -3 43 8 23 12 12 11 -30z
m-762 -7 c-10 -11 -9 -13 3 -9 25 8 37 -31 26 -89 -5 -29 -13 -53 -18 -53 -14
0 -52 44 -41 47 6 2 9 12 6 22 -2 9 3 23 11 30 12 10 13 18 5 32 -12 24 -2 69
12 48 4 -8 3 -19 -4 -28z m972 -20 c5 -29 5 -49 0 -44 -9 10 -24 110 -15 102
4 -4 10 -30 15 -58z m-676 23 c-4 -12 -8 -13 -14 -3 -9 15 -2 32 11 24 5 -3 6
-13 3 -21z m885 -26 c-2 -9 -10 -1 -20 20 l-17 36 20 -21 c12 -11 19 -27 17
-35z m-574 15 c-4 -22 -3 -25 5 -13 9 12 11 10 11 -11 0 -15 -8 -33 -17 -40
-15 -11 -16 -11 -6 1 8 9 9 19 2 32 -6 10 -7 28 -4 38 9 30 16 24 9 -7z m-100
-33 c-5 -5 -9 4 -10 23 -1 30 -1 30 9 9 6 -14 7 -26 1 -32z m-674 -85 c-19
-43 -34 -92 -34 -110 -1 -18 -4 -31 -8 -28 -5 2 -8 -8 -7 -24 0 -25 1 -26 9
-8 6 14 7 6 5 -25 -2 -25 -5 -58 -6 -75 -2 -22 -4 -16 -9 20 -6 43 -7 36 -8
-44 -1 -51 5 -141 14 -198 8 -58 13 -108 10 -110 -3 -3 -8 13 -12 36 -4 24
-10 38 -13 32 -4 -5 -7 9 -7 32 -4 179 -3 278 1 312 5 33 8 68 14 138 1 5 6 5
13 1 8 -5 9 -2 5 11 -4 9 -2 25 5 33 11 13 11 14 0 8 -14 -8 -14 -9 3 82 l8
44 25 -26 25 -25 -33 -76z m465 73 c36 -63 44 -82 19 -48 -10 14 -23 28 -28
32 -7 5 -7 8 -1 8 6 0 1 7 -9 15 -11 8 -21 22 -22 30 -4 29 11 15 41 -37z
m155 27 c4 3 3 -6 -3 -20 -14 -29 -20 -31 -36 -11 -10 11 -10 20 0 37 10 20
12 20 21 5 5 -9 13 -14 18 -11z m110 11 c0 -3 -4 -8 -10 -11 -5 -3 -10 -1 -10
4 0 6 5 11 10 11 6 0 10 -2 10 -4z m487 -68 c-2 -13 -4 -5 -4 17 -1 22 1 32 4
23 2 -10 2 -28 0 -40z m71 16 c-3 -14 -5 -12 -10 9 -3 19 -2 25 4 19 6 -6 8
-18 6 -28z m-858 0 c0 -16 -16 -19 -25 -4 -8 13 4 32 16 25 5 -4 9 -13 9 -21z
m943 -25 c-3 -68 -13 -77 -13 -12 0 40 5 63 14 63 1 0 0 -23 -1 -51z m-735 21
c-7 -10 -14 -17 -17 -15 -4 4 18 35 25 35 2 0 -1 -9 -8 -20z m774 -49 c1 -34
-2 -64 -5 -68 -4 -3 -7 27 -7 67 0 40 3 71 6 68 3 -3 6 -33 6 -67z m-76 -23
c-6 -9 -12 -15 -14 -13 -2 2 0 10 4 17 4 7 8 29 7 48 l-1 35 7 -35 c4 -19 2
-43 -3 -52z m-1272 -31 c4 -43 10 -85 13 -95 4 -11 -5 -6 -25 12 -23 22 -29
32 -20 38 10 6 10 8 1 8 -18 0 -25 -18 -14 -37 6 -10 11 -14 11 -10 0 5 11 -5
25 -21 26 -31 33 -76 21 -129 -4 -19 -3 -34 3 -38 6 -3 11 -11 11 -18 0 -6 -7
-2 -15 9 -8 11 -15 14 -15 7 0 -7 -7 -13 -15 -13 -10 0 -15 10 -15 30 0 17 -4
30 -9 30 -5 0 -7 -8 -4 -19 3 -13 -2 -20 -19 -23 l-23 -4 7 98 c4 54 11 106
16 115 5 10 6 27 1 38 -10 27 -11 43 0 26 6 -10 11 -4 16 20 4 19 12 45 17 59
14 37 24 11 32 -83z m52 46 c-3 -4 -13 2 -21 13 -8 10 -15 15 -15 10 0 -5 7
-17 15 -26 13 -15 14 -25 5 -61 -8 -30 -8 -52 -1 -69 l10 -25 2 28 c1 15 3 32
4 37 1 6 3 20 4 33 1 12 6 29 11 37 8 12 14 10 39 -17 16 -18 26 -33 21 -33
-5 0 -12 4 -15 10 -3 5 -16 15 -28 21 l-22 12 23 -25 c27 -30 27 -40 1 -94
-14 -26 -27 -40 -35 -37 -7 3 -13 8 -12 11 1 4 -4 21 -11 37 -7 17 -14 67 -17
113 l-4 83 26 -26 c14 -15 23 -29 20 -32z m541 35 c-3 -8 -6 -5 -6 6 -1 11 2
17 5 13 3 -3 4 -12 1 -19z m-210 -7 c0 -11 -6 -17 -14 -14 -14 6 -17 16 -6 26
12 13 22 7 20 -12z m137 4 c-5 -11 -1 -14 12 -9 16 5 16 4 4 -5 -17 -12 -36 1
-26 18 10 16 16 13 10 -4z m733 -22 c-3 -10 -5 -4 -5 12 0 17 2 24 5 18 2 -7
2 -21 0 -30z m213 15 c0 -13 -23 -5 -28 10 -2 7 2 10 12 6 9 -3 16 -11 16 -16z
m-1111 -25 c16 -12 9 -28 -12 -28 -7 0 -12 -5 -12 -12 0 -6 -3 -15 -7 -19 -5
-4 -8 2 -8 14 0 12 5 22 11 22 6 0 8 12 5 33 -3 17 -3 25 1 17 3 -8 13 -20 22
-27z m428 15 c-3 -8 -6 -5 -6 6 -1 11 2 17 5 13 3 -3 4 -12 1 -19z m783 12 c0
-5 -4 -10 -10 -10 -5 0 -10 5 -10 10 0 6 5 10 10 10 6 0 10 -4 10 -10z m-1366
-22 c-6 -20 -5 -21 9 -10 11 9 17 10 22 2 4 -6 4 -14 1 -17 -3 -4 -6 0 -6 7 0
11 -3 11 -12 2 -9 -9 -9 -15 -1 -23 9 -9 8 -19 -2 -39 -8 -15 -11 -31 -7 -35
4 -4 -3 -3 -14 3 -19 10 -21 16 -13 49 11 49 11 75 -1 48 -8 -19 -9 -19 -9 4
-1 17 3 22 14 17 8 -3 15 -1 15 4 0 6 3 10 6 10 3 0 2 -10 -2 -22z m213 -29
c-9 -6 -15 -14 -12 -20 4 -5 -1 -9 -9 -9 -9 0 -16 7 -16 15 0 8 6 14 13 13 7
-2 11 7 11 20 -1 22 0 23 15 7 15 -15 15 -17 -2 -26z m149 16 c2 -22 0 -23
-14 -9 -13 14 -13 17 -1 25 8 5 14 9 14 9 0 0 1 -11 1 -25z m114 -11 c0 -8 -5
-12 -10 -9 -6 4 -8 11 -5 16 9 14 15 11 15 -7z m437 -16 c-3 -7 -5 -2 -5 12 0
14 2 19 5 13 2 -7 2 -19 0 -25z m60 -30 c-2 -13 -4 -3 -4 22 0 25 2 35 4 23 2
-13 2 -33 0 -45z m553 30 c0 -13 -23 -5 -28 10 -2 7 2 10 12 6 9 -3 16 -11 16
-16z m-1176 -4 c4 -9 4 -19 1 -22 -3 -3 -5 0 -5 7 0 7 -4 9 -10 6 -5 -3 -10 1
-10 9 0 21 16 20 24 0z m751 -2 c-3 -3 -11 0 -18 7 -9 10 -8 11 6 5 10 -3 15
-9 12 -12z m240 -2 c-1 -11 -4 -22 -7 -25 -4 -5 -4 34 1 43 4 8 7 -1 6 -18z
m-319 -77 c1 -43 3 -126 4 -185 0 -60 5 -108 9 -108 5 0 8 10 7 23 -1 12 2 36
6 52 5 17 11 53 13 81 3 28 10 65 15 82 4 18 5 34 0 37 -5 3 -11 -5 -13 -17
-2 -13 -5 -6 -5 17 -1 22 2 35 6 29 4 -6 17 -14 30 -18 17 -6 22 -3 22 11 0
15 2 16 10 3 6 -10 6 -16 0 -18 -6 -2 -10 -15 -10 -28 0 -14 4 -22 10 -19 6 4
10 -15 10 -50 0 -31 3 -54 8 -52 4 3 5 45 2 95 -4 76 -3 89 10 87 16 -2 17
-18 5 -47 -5 -14 -2 -18 14 -18 12 0 21 6 21 13 0 8 7 14 15 14 12 0 15 -14
16 -61 1 -43 3 -54 8 -36 7 23 8 21 13 -15 7 -46 3 -286 -6 -330 -3 -16 1 -5
9 25 19 68 19 241 1 332 -8 42 -9 73 -3 83 15 28 37 -2 38 -54 l2 -46 7 40 6
40 12 -29 c29 -67 48 -168 42 -212 -4 -24 -6 -70 -6 -103 1 -32 -2 -57 -6 -54
-5 2 -8 -15 -8 -38 0 -52 7 -46 25 20 8 33 10 51 3 51 -7 0 -7 5 1 13 6 8 10
59 10 126 0 62 2 116 6 119 3 3 12 -3 20 -14 13 -17 13 -14 0 24 -8 24 -10 40
-5 37 6 -3 10 4 10 17 0 16 -3 19 -9 10 -7 -11 -9 -11 -14 1 -5 15 15 18 29 5
3 -4 8 -62 11 -130 2 -68 6 -139 8 -158 2 -19 4 -53 4 -74 1 -51 10 -42 14 15
1 24 10 55 20 69 9 13 17 30 17 37 0 6 3 14 8 16 4 3 5 -16 3 -41 -2 -26 0
-44 4 -40 4 4 9 42 11 85 2 43 6 98 10 123 4 25 7 63 6 85 -1 35 0 37 8 16 12
-29 17 -159 8 -226 l-7 -50 10 45 c6 25 13 52 17 60 3 8 6 32 7 52 2 51 15 61
15 13 0 -46 6 -43 13 5 7 54 18 90 27 90 11 0 12 -198 1 -254 -5 -25 -5 -43
-1 -41 10 6 22 108 22 176 0 27 4 49 8 49 9 0 7 15 -4 42 -5 10 -6 23 -3 30 3
7 6 2 6 -12 1 -20 3 -22 11 -10 7 11 10 -6 11 -55 l2 -70 9 73 c6 39 13 72 17
72 5 0 8 -39 9 -87 0 -158 2 -174 12 -168 6 3 10 23 11 43 0 30 2 33 9 17 6
-14 9 -2 9 43 1 61 15 87 19 35 1 -14 5 -29 8 -32 7 -6 -3 77 -12 106 -5 15
-4 15 4 3 15 -22 31 -128 27 -180 -1 -25 -6 -106 -9 -180 -4 -74 -11 -139 -16
-146 -6 -6 -12 -40 -14 -75 -2 -35 -11 -82 -19 -104 -18 -47 -21 -37 -6 20 12
46 15 67 18 150 3 49 5 55 12 35 6 -17 7 0 4 50 -2 41 -5 83 -5 93 0 9 -3 17
-8 17 -4 0 -8 -21 -8 -47 -1 -103 -16 -261 -28 -318 l-14 -60 -1 45 c-1 45 15
196 25 235 4 15 3 17 -4 5 -5 -8 -20 -64 -32 -125 -13 -60 -26 -113 -29 -117
-4 -5 -6 55 -5 132 1 77 -1 140 -5 140 -4 0 -7 -30 -7 -67 0 -129 -13 -222
-35 -244 -11 -11 -17 -25 -12 -32 5 -8 10 -3 14 13 6 20 7 21 8 5 2 -35 -19
-94 -37 -104 -13 -8 -14 -10 -3 -11 12 0 12 -3 3 -12 -15 -15 -16 -32 -2 -23
17 10 11 -2 -7 -16 -10 -7 -15 -9 -11 -5 4 5 3 15 -3 23 -9 10 -8 13 0 13 8 0
10 8 6 20 -5 14 -2 20 9 20 9 0 16 4 16 10 0 5 -4 9 -9 7 -5 -1 -17 7 -26 18
-9 11 -14 14 -10 8 3 -7 1 -13 -4 -13 -6 0 -10 -5 -8 -11 1 -6 -4 -14 -10 -16
-9 -3 -13 8 -13 36 0 23 -5 41 -11 41 -7 0 -9 15 -6 40 2 22 1 38 -2 36 -4 -3
-8 -17 -9 -33 -3 -30 -9 -68 -12 -68 -1 0 -4 -13 -6 -29 -3 -17 -9 -37 -14
-45 -7 -11 -8 -6 -4 17 8 42 0 41 -21 -4 -9 -20 -19 -33 -23 -30 -3 4 -5 43
-4 88 2 45 1 80 -2 77 -4 -5 -17 -121 -18 -158 0 -18 -2 -20 -8 -10 -7 10 -13
4 -25 -23 -8 -21 -15 -42 -15 -48 0 -5 -5 -10 -11 -10 -5 0 -8 -4 -5 -9 4 -5
-2 -8 -11 -7 -9 2 -19 8 -21 16 -4 10 -6 9 -14 -1 -8 -11 -9 -11 -6 -1 2 8 7
13 12 12 5 -1 13 4 18 12 6 9 7 5 4 -12 l-6 -25 12 25 c7 14 15 27 18 30 3 3
6 21 8 40 1 26 0 30 -6 16 -21 -50 -26 62 -6 139 5 18 4 19 -6 2 -6 -10 -14
-58 -17 -108 -6 -85 -8 -91 -31 -100 -31 -12 -35 -8 -23 25 8 19 7 26 -2 27
-9 0 -9 2 1 6 6 2 12 14 12 26 0 20 -1 20 -22 -3 -12 -13 -24 -32 -25 -42 -2
-11 -12 -36 -24 -56 -11 -20 -18 -30 -16 -21 3 9 1 22 -4 30 -7 11 -9 11 -9
-4 0 -10 -6 -20 -14 -23 -8 -3 -12 -13 -9 -25 3 -11 0 -19 -6 -19 -7 0 -10 -4
-6 -9 9 -16 -16 -60 -32 -54 -12 5 -12 8 0 27 8 12 18 37 22 56 4 19 14 47 21
62 8 15 15 31 15 35 1 5 5 18 10 31 5 12 6 22 4 22 -3 0 -10 -11 -15 -25 -5
-14 -14 -25 -20 -25 -13 0 -13 4 5 70 24 90 16 90 -21 1 -20 -46 -33 -90 -30
-98 3 -8 2 -11 -3 -8 -5 3 -12 -4 -16 -15 -3 -11 -11 -20 -16 -20 -5 0 -3 14
6 30 9 17 14 30 11 30 -2 0 2 28 10 61 26 113 1 77 -56 -78 -12 -35 -26 -63
-31 -63 -5 0 -3 -11 3 -25 13 -28 1 -86 -19 -92 -9 -3 -9 5 2 31 8 19 15 41
14 48 0 7 -7 -2 -15 -19 -8 -18 -16 -33 -17 -33 -6 0 -6 34 0 50 4 8 8 25 10
36 2 12 15 54 28 95 32 94 32 124 -1 39 -14 -36 -35 -73 -47 -83 -12 -10 -16
-16 -9 -12 8 4 12 -2 12 -17 l0 -22 -15 22 c-14 19 -14 25 1 54 24 47 64 168
55 168 -4 0 -20 -30 -34 -67 -15 -38 -36 -81 -47 -98 l-20 -30 5 50 c2 28 11
70 20 95 8 24 18 57 21 74 2 17 14 81 26 141 11 61 22 117 23 125 3 15 16 145
21 210 1 19 3 129 3 244 1 115 4 206 8 203 3 -4 7 -42 9 -84z m-846 39 c-7 -3
-16 0 -18 7 -2 6 -9 8 -14 5 -7 -4 -8 -2 -4 4 5 9 13 9 29 0 17 -8 18 -13 7
-16z m922 -24 c-9 -9 -12 -4 -11 23 0 32 1 33 11 11 8 -17 8 -26 0 -34z m106
21 c-3 -8 -7 -3 -11 10 -4 17 -3 21 5 13 5 -5 8 -16 6 -23z m-1142 -5 c0 -15
-7 -24 -23 -27 -23 -4 -29 7 -17 36 9 24 40 17 40 -9z m1188 11 c-4 -8 -8 -15
-10 -15 -2 0 -4 7 -4 15 0 8 4 15 10 15 5 0 7 -7 4 -15z m516 -11 c0 -2 -9 0
-20 6 -11 6 -20 13 -20 16 0 2 9 0 20 -6 11 -6 20 -13 20 -16z m-2043 -6 c-3
-8 -6 -5 -6 6 -1 11 2 17 5 13 3 -3 4 -12 1 -19z m1562 -33 c0 -5 -6 -1 -14 9
-8 11 -15 24 -15 30 0 5 7 1 15 -10 8 -10 14 -23 14 -29z m248 30 c0 -8 -4
-12 -9 -9 -5 3 -6 10 -3 15 9 13 12 11 12 -6z m93 5 c0 -5 -2 -10 -4 -10 -3 0
-8 5 -11 10 -3 6 -1 10 4 10 6 0 11 -4 11 -10z m-1694 -39 c-8 -9 -20 -35 -25
-57 -8 -35 -9 -36 -10 -10 -1 16 -3 27 -5 25 -5 -4 -15 -48 -20 -79 -1 -9 -5
-21 -9 -27 -4 -6 -3 -13 1 -15 5 -1 4 -19 -2 -38 l-11 -35 -3 50 c-5 70 4 108
32 138 14 15 27 36 31 47 4 11 11 18 16 15 5 -4 9 2 10 12 0 11 3 13 6 5 3 -7
-2 -21 -11 -31z m329 29 c3 -6 -1 -7 -9 -4 -18 7 -21 14 -7 14 6 0 13 -4 16
-10z m1605 -16 c0 -2 -9 0 -20 6 -11 6 -20 13 -20 16 0 2 9 0 20 -6 11 -6 20
-13 20 -16z m79 -13 c28 -14 24 -31 -3 -18 -14 7 -26 15 -26 20 0 4 -6 7 -14
7 -7 0 -19 7 -26 15 -10 12 -7 12 21 -1 19 -8 40 -19 48 -23z m-694 19 c3 -5
1 -10 -4 -10 -6 0 -11 5 -11 10 0 6 2 10 4 10 3 0 8 -4 11 -10z m135 -20 c0
-16 -2 -30 -4 -30 -2 0 -6 14 -8 30 -3 17 -1 30 4 30 4 0 8 -13 8 -30z m310
20 c0 -5 -7 -7 -15 -4 -8 4 -15 8 -15 10 0 2 7 4 15 4 8 0 15 -4 15 -10z
m-1706 -8 c2 -4 -4 -9 -15 -9 -11 -1 -17 2 -14 8 7 11 22 12 29 1z m1790 -7
c-4 -8 -11 -15 -16 -15 -6 0 -5 6 2 15 7 8 14 15 16 15 2 0 1 -7 -2 -15z
m-1724 1 c0 -2 -7 -7 -16 -10 -8 -3 -12 -2 -9 4 6 10 25 14 25 6z m1307 -23
c-3 -14 -1 -38 4 -53 5 -14 6 -42 2 -62 l-8 -37 -21 69 c-19 61 -20 72 -7 90
20 28 36 25 30 -7z m230 5 c-3 -8 -6 -5 -6 6 -1 11 2 17 5 13 3 -3 4 -12 1
-19z m60 -15 c-3 -10 -5 -4 -5 12 0 17 2 24 5 18 2 -7 2 -21 0 -30z m-1632 7
c3 -5 -5 -6 -17 -4 -17 4 -16 1 7 -11 l30 -15 -40 6 c-22 3 -36 2 -32 -3 5 -4
13 -9 18 -9 5 -1 12 -2 15 -3 9 -2 -17 -31 -28 -31 -5 0 -6 5 -2 12 5 8 2 9
-9 5 -21 -8 -21 -8 -2 36 11 28 19 34 35 30 11 -3 22 -9 25 -13z m265 10 c-8
-5 -24 -9 -35 -9 -16 1 -16 2 5 9 35 11 48 11 30 0z m657 -27 c-3 -10 -5 -4
-5 12 0 17 2 24 5 18 2 -7 2 -21 0 -30z m-490 5 c-3 -8 -6 -5 -6 6 -1 11 2 17
5 13 3 -3 4 -12 1 -19z m258 12 c3 -5 1 -10 -4 -10 -6 0 -11 5 -11 10 0 6 2
10 4 10 3 0 8 -4 11 -10z m774 -40 l-1 -25 -8 25 c-4 14 -8 32 -9 40 -1 13 0
13 9 0 5 -8 9 -26 9 -40z m226 41 c3 -5 1 -12 -5 -16 -5 -3 -10 1 -10 9 0 18
6 21 15 7z m105 -22 c0 -14 -17 -10 -23 5 -4 10 -1 13 9 9 7 -3 14 -9 14 -14z
m84 0 c-3 -5 1 -9 8 -9 8 0 19 -22 26 -52 18 -74 20 -79 31 -118 6 -19 11 -52
11 -72 0 -20 4 -39 8 -42 5 -3 7 16 4 42 -5 55 8 51 15 -5 7 -52 13 -55 13 -4
0 42 -33 178 -51 213 -5 10 -7 18 -3 18 3 0 0 7 -7 17 -13 15 -12 15 8 4 22
-11 50 -51 37 -51 -3 0 1 -11 10 -25 19 -28 21 -49 4 -39 -7 4 -8 3 -4 -4 4
-7 13 -12 21 -12 15 0 23 -29 31 -114 8 -93 17 -81 11 14 -4 69 -3 76 4 40 16
-73 -3 -231 -42 -356 -10 -33 -19 -72 -19 -87 0 -15 -4 -27 -10 -27 -5 0 -7 8
-4 18 2 9 -5 -3 -16 -27 -11 -24 -22 -55 -25 -70 -3 -14 2 -7 11 17 9 24 18
41 20 39 6 -6 -61 -200 -76 -224 -13 -20 -14 -23 21 76 15 43 17 62 9 86 -7
23 -6 44 4 80 13 45 24 96 40 193 3 18 1 32 -4 32 -6 0 -10 -17 -10 -37 0 -21
-5 -58 -11 -83 -6 -25 -13 -55 -15 -66 -14 -72 -103 -309 -104 -276 0 18 46
179 64 222 26 63 62 295 44 284 -4 -3 -8 28 -8 68 0 40 -7 104 -15 143 -19 88
-19 90 3 74 10 -8 8 -3 -5 11 -38 43 -65 134 -37 123 8 -3 11 -9 8 -14z m226
1 c13 -9 11 -14 -10 -31 -22 -19 -25 -19 -28 -5 -4 21 4 46 15 46 4 0 15 -5
23 -10z m-2013 -9 c9 8 13 8 13 0 0 -6 -5 -11 -11 -11 -5 0 -7 -4 -4 -10 11
-18 -2 -10 -21 13 -10 12 -12 16 -4 10 10 -9 17 -10 27 -2z m1486 -6 c4 -8 2
-17 -3 -20 -6 -4 -10 3 -10 14 0 25 6 27 13 6z m477 0 c0 -8 -4 -15 -10 -15
-5 0 -10 7 -10 15 0 8 5 15 10 15 6 0 10 -7 10 -15z m-643 -32 c-3 -10 -5 -4
-5 12 0 17 2 24 5 18 2 -7 2 -21 0 -30z m753 6 c0 -5 -13 -8 -30 -7 -34 3 -38
12 -13 27 18 10 43 -2 43 -20z m-1823 15 c-3 -3 -12 -4 -19 -1 -8 3 -5 6 6 6
11 1 17 -2 13 -5z m582 -74 c1 -33 -2 -41 -9 -30 -5 8 -9 38 -9 65 1 64 17 32
18 -35z m-853 57 c4 -4 -5 -6 -19 -5 -15 1 -27 6 -27 10 0 9 36 5 46 -5z
m1420 -43 c-7 -82 -18 -85 -18 -4 0 47 3 60 13 60 7 0 8 -20 5 -56z m1079 34
c7 -7 -11 -8 -55 -3 -85 9 -97 21 -17 17 34 -2 67 -8 72 -14z m75 12 c0 -5 -4
-10 -10 -10 -5 0 -10 5 -10 10 0 6 5 10 10 10 6 0 10 -4 10 -10z m-2740 -60
c-7 -16 -9 -39 -5 -52 5 -18 4 -20 -4 -8 -14 20 -14 50 1 91 9 25 13 29 16 16
2 -10 -2 -31 -8 -47z m321 48 c19 -16 69 -84 69 -94 0 -4 -8 0 -18 9 -11 10
-23 13 -31 8 -10 -6 -3 -12 22 -20 29 -10 34 -16 30 -34 -4 -17 -2 -19 5 -8
12 16 27 -98 19 -140 -2 -14 -5 -7 -6 20 0 24 -4 41 -8 37 -10 -10 -11 -47 -3
-77 6 -20 3 -30 -11 -43 -10 -9 -19 -23 -19 -31 0 -21 20 -9 21 13 0 9 3 12 5
6 3 -6 -2 -24 -11 -40 -10 -19 -15 -23 -15 -11 0 9 -5 17 -11 17 -5 0 -7 -5
-3 -12 4 -6 3 -8 -4 -5 -12 8 -4 47 9 47 5 0 9 9 9 21 0 11 5 17 10 14 6 -3
10 1 10 9 0 9 -3 16 -8 16 -4 0 -7 29 -7 65 0 36 -2 65 -5 65 -4 0 -11 15 -18
34 -16 45 -59 89 -78 82 -8 -3 -12 -2 -9 3 3 5 -4 12 -14 16 -23 7 -18 32 7
38 32 9 48 7 63 -5z m93 -20 c-9 -14 -39 -8 -51 10 -10 17 -8 18 22 8 19 -6
31 -14 29 -18z m1941 14 c-3 -3 -11 0 -18 7 -9 10 -8 11 6 5 10 -3 15 -9 12
-12z m78 11 c-7 -2 -21 -2 -30 0 -10 3 -4 5 12 5 17 0 24 -2 18 -5z m-1746 -9
c-3 -3 -12 -4 -19 -1 -8 3 -5 6 6 6 11 1 17 -2 13 -5z m856 -8 c15 -39 19
-139 7 -181 -7 -24 -16 -43 -20 -40 -9 6 -9 235 0 235 4 0 10 -6 13 -14z m727
-12 c0 -7 5 -16 12 -20 8 -5 9 0 6 14 -4 12 -2 22 3 22 5 0 9 -4 9 -8 0 -5 9
-8 21 -8 12 1 28 -9 36 -21 15 -22 14 -23 -9 -23 -40 0 -88 21 -88 38 0 26
-11 6 -17 -30 -10 -70 -19 -102 -28 -105 -13 -4 -43 72 -47 116 -3 30 1 36 22
41 36 8 80 0 80 -16z m227 20 c-3 -3 -12 -4 -19 -1 -8 3 -5 6 6 6 11 1 17 -2
13 -5z m284 -38 c1 -19 2 -19 10 4 l8 25 -2 -25 c-3 -33 -17 -29 -34 11 -12
28 -11 30 2 19 8 -7 15 -22 16 -34z m-2622 31 c-2 -1 -11 -8 -21 -15 -12 -10
-18 -10 -24 -1 -4 8 -3 9 4 5 7 -4 12 -2 12 3 0 6 8 11 17 11 9 0 14 -1 12 -3z
m22 -20 c-19 -21 -20 -25 -6 -37 15 -12 21 -4 16 23 -1 5 3 6 8 3 5 -4 12 -2
16 3 6 11 35 3 35 -9 0 -4 -11 -11 -25 -14 -14 -4 -35 -21 -46 -39 -15 -23
-19 -26 -14 -9 4 12 3 22 -2 21 -17 -3 -33 1 -33 9 0 10 57 72 66 72 4 0 -2
-11 -15 -23z m-120 -6 c-6 -10 -7 -22 -3 -26 4 -5 2 -5 -5 -1 -8 4 -13 -6 -15
-35 -2 -25 -9 -44 -17 -47 -25 -8 -5 89 22 110 28 22 30 22 18 -1z m1826 -13
c-3 -7 -5 -2 -5 12 0 14 2 19 5 13 2 -7 2 -19 0 -25z m503 10 c0 -13 -23 -5
-28 10 -2 7 2 10 12 6 9 -3 16 -11 16 -16z m-2423 -10 c-3 -8 -6 -5 -6 6 -1
11 2 17 5 13 3 -3 4 -12 1 -19z m700 16 c-3 -3 -12 -4 -19 -1 -8 3 -5 6 6 6
11 1 17 -2 13 -5z m2060 -16 c-3 -8 -6 -5 -6 6 -1 11 2 17 5 13 3 -3 4 -12 1
-19z m-2656 -60 c-16 -35 -19 -37 -14 -13 9 46 25 81 30 68 2 -6 -5 -31 -16
-55z m796 30 c-3 -7 -5 -2 -5 12 0 14 2 19 5 13 2 -7 2 -19 0 -25z m1575 18
c7 4 8 2 4 -5 -9 -13 -26 -5 -25 12 0 9 2 8 6 -1 2 -6 10 -9 15 -6z m83 4 c3
-5 1 -10 -4 -10 -6 0 -11 5 -11 10 0 6 2 10 4 10 3 0 8 -4 11 -10z m325 -56
c11 -38 11 -66 0 -155 -7 -59 -10 -115 -6 -124 4 -10 2 -15 -6 -13 -6 2 -13
17 -14 34 -1 16 -5 72 -8 124 -3 52 -8 115 -11 140 -4 33 -3 39 4 24 5 -12 11
-39 13 -60 2 -20 9 -39 16 -42 14 -4 8 38 -15 102 -11 33 -11 37 1 27 7 -6 19
-32 26 -57z m-450 46 c0 -5 -4 -10 -10 -10 -5 0 -10 5 -10 10 0 6 5 10 10 10
6 0 10 -4 10 -10z m-1966 -21 c-3 -5 0 -9 5 -9 6 0 11 -16 11 -35 0 -19 4 -35
9 -35 6 0 7 16 4 35 -4 26 -2 35 8 35 11 0 11 2 -1 10 -13 8 -12 10 3 10 9 0
17 -4 17 -8 0 -5 17 -8 37 -8 27 1 38 -3 39 -14 1 -24 -15 -50 -32 -50 -8 0
-12 -5 -9 -10 4 -6 10 -8 15 -5 5 3 3 -16 -5 -42 -8 -26 -15 -52 -15 -56 0 -5
-4 -5 -10 -2 -5 3 -8 0 -5 -7 8 -22 -9 -111 -23 -116 -8 -2 -12 10 -12 42 0
39 2 44 18 39 15 -6 15 -4 -2 15 -15 17 -16 22 -5 23 10 0 11 2 2 6 -8 3 -13
23 -13 49 0 24 -3 44 -7 44 -9 0 -7 -343 2 -379 l6 -24 15 28 c17 34 18 48 2
40 -7 -4 -5 0 5 8 17 14 24 33 9 23 -5 -3 -9 2 -9 10 0 36 25 -14 32 -63 l7
-52 -59 5 c-68 5 -121 20 -145 42 -10 8 -18 12 -18 8 0 -4 -5 -4 -10 -1 -6 4
6 19 27 34 96 69 141 271 88 396 -12 30 -12 32 6 28 10 -3 16 -9 13 -14z m283
-26 c-3 -10 -5 -2 -5 17 0 19 2 27 5 18 2 -10 2 -26 0 -35z m336 5 c-6 -59
-13 -61 -13 -5 0 26 4 47 9 47 4 0 6 -19 4 -42z m1259 33 c29 -12 85 -61 70
-61 -7 0 -12 -5 -12 -11 0 -5 5 -7 12 -3 7 5 8 3 2 -7 -4 -8 -10 -23 -11 -34
-3 -18 -1 -17 16 5 11 14 18 26 16 28 -2 2 5 14 16 25 11 12 17 27 14 35 -3 9
1 12 12 10 22 -4 26 -39 6 -60 -10 -11 -12 -18 -5 -18 7 0 13 -12 13 -27 2
-24 2 -25 6 -5 5 27 23 29 24 2 1 -11 2 -25 3 -32 0 -7 16 -22 34 -34 32 -22
32 -23 10 -27 -13 -2 -8 -3 10 -1 22 2 30 -1 26 -8 -5 -7 0 -9 14 -6 13 4 22
1 22 -5 0 -8 3 -7 9 1 11 18 22 17 33 -2 11 -20 28 -21 28 -1 0 8 7 15 15 15
11 0 15 -11 15 -39 0 -22 5 -41 12 -43 9 -3 10 -18 2 -61 -12 -64 -3 -77 13
-19 10 34 10 32 5 -23 -2 -33 -9 -69 -13 -80 -7 -16 -9 -13 -6 13 2 18 0 35
-5 38 -4 3 -8 -15 -8 -40 0 -24 5 -46 11 -48 9 -3 6 -33 -9 -107 -12 -57 -19
-108 -15 -114 3 -5 2 -7 -4 -4 -5 3 -15 -16 -22 -44 -7 -27 -20 -53 -28 -58
-9 -5 -13 -15 -10 -24 4 -12 -1 -14 -26 -11 -18 3 -27 1 -21 -3 6 -4 10 -17 8
-28 -2 -11 -5 -33 -8 -50 -3 -16 -6 -44 -8 -61 l-2 -31 -45 14 c-26 8 -53 18
-61 22 -9 5 -30 12 -48 16 -36 7 -35 26 1 19 12 -2 16 -2 9 2 -6 3 -9 11 -6
16 4 6 3 8 -3 5 -5 -3 -22 -3 -38 1 -26 7 -27 9 -11 24 17 18 21 29 9 27 -5
-1 -21 -1 -37 0 -49 2 -22 11 45 16 36 2 53 1 40 -3 -14 -4 -26 -13 -27 -20
-1 -7 0 -8 3 -2 2 5 17 10 33 10 16 0 31 6 33 13 4 9 8 9 14 1 7 -11 40 -18
71 -15 6 1 12 8 12 16 0 9 11 20 24 25 13 5 26 20 30 36 4 15 16 40 27 56 11
15 15 28 9 28 -6 0 -14 -8 -18 -17 -5 -13 -9 -7 -13 22 -6 37 -6 36 -8 -17 -1
-58 -20 -93 -22 -41 0 26 -2 25 -15 -12 l-14 -40 5 43 c7 61 34 122 50 116 8
-4 13 1 11 10 -6 39 -24 23 -53 -49 -11 -27 -12 -25 -7 28 6 73 -8 67 -30 -13
-9 -33 -20 -60 -23 -60 -3 0 -3 7 0 15 4 8 2 17 -4 20 -5 4 -7 11 -4 16 4 5 1
9 -4 9 -6 0 -11 5 -11 11 0 5 5 7 10 4 6 -3 10 0 11 7 1 17 4 32 23 118 9 40
15 74 13 76 -2 2 -19 -47 -37 -108 -18 -62 -35 -117 -39 -123 -3 -5 -6 -13 -6
-17 0 -3 -4 -10 -9 -15 -5 -4 -7 -3 -3 2 3 6 2 17 -3 24 -6 10 -12 7 -24 -15
-17 -29 -17 -29 -10 26 6 50 5 53 -10 41 -14 -12 -16 -10 -16 22 0 20 -4 38
-9 41 -10 6 -44 -41 -44 -61 0 -7 -4 -10 -8 -7 -5 3 -6 25 -2 49 5 38 3 45
-11 45 -20 0 -21 33 -2 113 7 31 11 57 7 57 -3 -1 -19 -28 -36 -61 -26 -53
-31 -58 -42 -43 -7 10 -13 29 -14 43 0 24 -1 24 -9 6 -9 -21 -10 -19 -15 45 0
8 -5 21 -9 29 -6 9 -5 12 1 8 13 -8 0 77 -14 95 -6 7 -11 33 -11 58 1 45 -8
139 -17 195 -5 29 -5 28 17 -9 34 -58 45 -56 58 11 l13 58 14 -55 c13 -52 45
-100 67 -100 6 0 1 7 -11 15 -32 23 -69 145 -44 145 5 0 20 -4 33 -9z m-2545
-78 c-2 -16 -4 -3 -4 27 0 30 2 43 4 28 2 -16 2 -40 0 -55z m859 53 c-6 -12
-14 -23 -18 -26 -4 -3 -14 -25 -23 -49 -14 -39 -14 -46 0 -61 18 -20 20 -40 3
-40 -23 0 -41 17 -32 31 9 16 14 46 19 114 1 28 3 50 4 51 0 0 14 0 30 0 26 0
28 -2 17 -20z m67 12 c-5 -7 -11 -38 -12 -68 -2 -30 -7 -60 -12 -67 -7 -7 -6
-12 2 -15 8 -3 10 -11 6 -22 -4 -9 -11 -14 -17 -11 -6 3 -10 -4 -11 -17 0 -13
-3 -17 -6 -9 -4 10 -7 10 -13 1 -4 -7 -6 13 -5 45 2 31 6 59 10 63 4 4 6 3 5
-3 -6 -26 1 -76 9 -71 5 3 7 27 4 53 -3 36 -2 44 6 33 9 -13 11 -13 11 3 0 9
-6 17 -14 17 -18 0 -13 40 6 52 7 4 9 8 3 9 -5 0 -1 4 10 9 28 12 29 12 18 -2z
m1677 2 c0 -5 -4 -10 -9 -10 -6 0 -13 5 -16 10 -3 6 1 10 9 10 9 0 16 -4 16
-10z m290 6 c0 -3 -4 -8 -10 -11 -5 -3 -10 -1 -10 4 0 6 5 11 10 11 6 0 10 -2
10 -4z m-260 -22 c0 -9 5 -12 12 -8 7 4 8 3 4 -5 -6 -9 -11 -9 -22 0 -16 13
-18 29 -4 29 6 0 10 -7 10 -16z m205 6 c-3 -5 -12 -7 -20 -3 -21 7 -19 13 6
13 11 0 18 -4 14 -10z m282 -5 c8 -22 -6 -33 -17 -15 -13 20 -12 30 0 30 6 0
13 -7 17 -15z m-3077 -6 c0 -5 5 -7 10 -4 6 4 10 -18 10 -59 0 -36 -5 -68 -10
-71 -6 -3 -8 -17 -6 -29 6 -31 -10 -56 -18 -30 -5 16 -11 174 -7 197 2 11 21
8 21 -4z m333 -14 c-3 -8 0 -15 6 -15 8 0 9 -6 2 -17 -10 -20 -11 -22 -12 -55
-1 -22 -1 -22 -9 2 -8 24 -8 23 -9 -7 -1 -18 -6 -33 -11 -33 -10 0 -6 36 8 70
5 14 10 39 14 67 1 7 5 10 9 7 5 -2 6 -11 2 -19z m864 -22 c-3 -10 -5 -2 -5
17 0 19 2 27 5 18 2 -10 2 -26 0 -35z m912 -26 c1 -11 -3 -15 -10 -11 -8 4 -9
-1 -4 -17 5 -19 4 -21 -4 -9 -12 17 -14 54 -4 90 l7 25 7 -30 c4 -16 7 -38 8
-48z m874 -12 c3 -22 8 -49 11 -60 2 -11 5 -55 5 -98 1 -45 5 -76 10 -72 5 3
17 -2 25 -11 15 -14 16 -11 16 30 0 25 4 46 9 46 5 0 7 -24 5 -52 -1 -29 -4
-72 -5 -95 -2 -25 -8 -43 -14 -43 -8 0 -10 14 -5 45 7 44 -2 65 -26 65 -8 0
-13 -28 -15 -85 -2 -48 -9 -89 -15 -93 -20 -13 -34 -50 -34 -89 0 -50 -9 -80
-25 -87 -10 -3 -11 4 -4 32 5 20 6 46 3 57 -4 17 -3 18 6 5 9 -12 10 -3 6 40
-2 32 -1 44 3 30 l7 -25 6 28 c3 15 1 30 -3 33 -5 3 -9 13 -8 22 0 14 2 13 9
-3 10 -24 9 -34 17 140 3 77 10 143 15 146 7 4 7 13 0 25 -5 11 -12 37 -16 59
-4 22 -9 54 -12 70 l-5 30 15 -25 c7 -14 16 -43 19 -65z m-2826 53 c-3 -8 -6
-5 -6 6 -1 11 2 17 5 13 3 -3 4 -12 1 -19z m810 0 c-3 -8 -6 -5 -6 6 -1 11 2
17 5 13 3 -3 4 -12 1 -19z m1860 0 c-3 -8 -6 -5 -6 6 -1 11 2 17 5 13 3 -3 4
-12 1 -19z m-2784 -15 l-4 -28 16 25 c12 18 15 20 10 5 -15 -49 -22 -187 -12
-235 7 -29 6 -32 -4 -16 -12 20 -20 276 -8 276 3 0 4 -12 2 -27z m2690 -3 c-3
-11 -9 -17 -15 -14 -5 3 -5 11 1 18 6 7 7 17 3 21 -4 5 -2 5 5 2 6 -4 9 -16 6
-27z m67 15 c0 -9 -6 -12 -15 -9 -8 4 -15 10 -15 15 0 5 7 9 15 9 8 0 15 -7
15 -15z m309 -30 c0 -5 -4 -3 -9 5 -5 8 -9 22 -9 30 0 16 17 -16 18 -35z
m-2062 -12 c-3 -10 -5 -2 -5 17 0 19 2 27 5 18 2 -10 2 -26 0 -35z m-935 -21
c2 -18 1 -32 -3 -32 -4 0 -10 12 -12 28 -2 15 -2 -7 0 -48 2 -53 0 -70 -7 -59
-11 19 -20 122 -13 150 7 26 29 3 35 -39z m278 48 c0 -5 -5 -10 -11 -10 -5 0
-7 5 -4 10 3 6 8 10 11 10 2 0 4 -4 4 -10z m66 -12 c-19 -11 -13 -24 17 -38
21 -11 21 -11 3 4 -17 14 -17 16 -4 16 9 0 20 -5 23 -10 4 -6 10 -8 15 -5 5 3
11 -4 15 -15 3 -11 10 -20 14 -20 4 0 7 -8 6 -17 -4 -33 -17 -54 -31 -49 -8 3
-14 1 -14 -5 0 -13 -50 -9 -69 6 -11 7 -13 7 -8 -2 10 -16 -26 -13 -42 4 -9
10 -9 13 1 13 8 0 6 5 -5 11 -9 5 -21 8 -26 4 -5 -3 -8 3 -6 12 2 10 4 28 4
41 1 12 7 22 15 22 8 0 17 6 19 13 3 6 6 -3 6 -21 1 -18 4 -31 9 -28 4 2 7 20
6 40 -1 20 2 34 6 31 5 -3 6 -15 3 -28 -5 -21 -5 -21 13 3 10 14 18 28 17 32
-2 4 4 5 13 1 15 -5 15 -7 0 -15z m351 0 c-3 -8 -6 -5 -6 6 -1 11 2 17 5 13 3
-3 4 -12 1 -19z m418 -116 c-2 -35 -8 -69 -12 -75 -5 -7 -8 -55 -8 -107 0 -60
-2 -84 -7 -65 -7 28 -7 28 -5 -7 2 -20 -1 -34 -5 -32 -4 3 -8 -10 -8 -28 0
-26 3 -30 11 -18 9 12 10 12 5 -3 -3 -10 -6 -26 -7 -35 0 -9 -5 -3 -10 13 -8
25 -3 163 7 215 1 8 3 33 3 55 1 30 4 36 11 25 8 -12 10 -11 10 6 0 11 -4 24
-9 30 -4 5 -4 42 3 84 9 68 11 71 17 40 4 -19 6 -64 4 -98z m-1002 98 c3 -11
1 -18 -4 -14 -5 3 -9 -5 -10 -18 -2 -49 -6 -79 -12 -84 -4 -5 -3 97 2 129 2
15 19 6 24 -13z m969 6 c7 4 8 2 4 -5 -9 -13 -26 -5 -25 12 0 9 2 8 6 -1 2 -6
10 -9 15 -6z m1588 4 c0 -5 -2 -10 -4 -10 -3 0 -8 5 -11 10 -3 6 -1 10 4 10 6
0 11 -4 11 -10z m471 -78 c17 -24 29 -46 26 -48 -5 -5 -68 79 -86 117 l-12 24
21 -25 c11 -14 34 -44 51 -68z m-2711 54 c-1 -19 -1 -20 -11 -3 -6 9 -15 14
-21 11 -6 -4 -8 -3 -5 3 11 18 37 10 37 -11z m262 -17 c-3 -20 -8 -27 -14 -21
-11 11 -2 52 11 52 4 0 6 -14 3 -31z m1913 9 c-5 -21 -5 -21 9 2 l15 25 1 -27
c0 -27 -14 -36 -35 -20 -17 12 -17 42 0 42 12 0 15 -6 10 -22z m53 -27 c-15
-5 -21 7 -13 26 7 17 8 17 15 -2 4 -11 3 -22 -2 -24z m32 11 c0 -15 -2 -15
-10 -2 -13 20 -13 33 0 25 6 -3 10 -14 10 -23z m395 2 c20 -31 29 -74 15 -74
-9 0 -14 20 -11 46 1 6 -6 17 -14 24 -8 7 -15 16 -15 21 0 15 7 10 25 -17z
m-3028 -52 c2 -79 16 -138 47 -202 13 -25 23 -61 23 -80 0 -19 3 -46 6 -60 11
-47 15 -130 7 -130 -10 0 -33 64 -34 96 -2 25 -34 77 -44 70 -4 -2 -7 11 -8
28 0 19 5 33 11 33 7 0 10 -9 7 -20 -4 -15 -2 -18 8 -12 9 5 11 4 6 -3 -4 -6
-2 -21 5 -33 10 -19 13 -20 20 -7 5 10 2 29 -10 55 -11 21 -21 54 -24 73 -2
19 -8 34 -14 33 -5 -1 -7 12 -5 29 3 17 1 28 -4 25 -10 -5 -17 115 -9 151 3
12 6 22 8 22 1 0 3 -31 4 -68z m2662 21 c1 -7 -3 -13 -7 -13 -5 0 -9 15 -9 33
-1 26 1 28 7 12 5 -11 9 -26 9 -32z m-2602 -15 c-2 -13 -4 -5 -4 17 -1 22 1
32 4 23 2 -10 2 -28 0 -40z m1960 30 c-3 -8 -6 -5 -6 6 -1 11 2 17 5 13 3 -3
4 -12 1 -19z m-2073 -24 c3 -8 2 -12 -4 -9 -6 3 -10 10 -10 16 0 14 7 11 14
-7z m1513 -16 c-3 -7 -5 -2 -5 12 0 14 2 19 5 13 2 -7 2 -19 0 -25z m486 -21
c9 -71 -2 -157 -19 -157 -9 0 -15 -12 -15 -32 l-2 -33 -4 30 c-3 20 1 33 13
42 10 7 15 13 12 13 -3 0 -1 23 3 50 4 28 4 70 0 93 -9 41 -9 41 -11 -23 -1
-36 -6 -76 -10 -90 -8 -24 -8 -24 -9 6 -1 17 2 59 5 93 9 77 29 82 37 8z m627
49 c0 -11 -19 -15 -25 -6 -3 5 1 10 9 10 9 0 16 -2 16 -4z m58 -25 c3 -19 0
-22 -13 -17 -9 3 -21 6 -26 6 -5 0 -9 9 -9 21 0 31 44 22 48 -10z m269 -3 c-3
-7 -5 -2 -5 12 0 14 2 19 5 13 2 -7 2 -19 0 -25z m-3002 -14 c-3 -21 -2 -40 3
-43 14 -9 25 -81 12 -81 -9 0 -15 30 -11 54 1 4 -3 14 -9 21 -11 13 -4 85 7
85 3 0 2 -16 -2 -36z m662 14 c-3 -8 -6 -5 -6 6 -1 11 2 17 5 13 3 -3 4 -12 1
-19z m1420 0 c-3 -8 -6 -5 -6 6 -1 11 2 17 5 13 3 -3 4 -12 1 -19z m-1835 -30
c-6 -61 -17 -66 -17 -7 0 27 4 49 10 49 6 0 9 -17 7 -42z m725 10 c-3 -7 -5
-2 -5 12 0 14 2 19 5 13 2 -7 2 -19 0 -25z m2093 23 c0 -6 -4 -12 -8 -15 -5
-3 -9 1 -9 9 0 8 4 15 9 15 4 0 8 -4 8 -9z m-305 -11 c3 -5 1 -10 -4 -10 -6 0
-11 5 -11 10 0 6 2 10 4 10 3 0 8 -4 11 -10z m-2695 -32 c0 -19 -16 -5 -17 14
-2 18 0 20 7 8 5 -8 10 -18 10 -22z m3017 10 c-3 -8 -6 -5 -6 6 -1 11 2 17 5
13 3 -3 4 -12 1 -19z m-2430 -20 c-3 -7 -5 -2 -5 12 0 14 2 19 5 13 2 -7 2
-19 0 -25z m70 -5 c-4 -20 -12 -40 -19 -45 -7 -4 -10 -8 -6 -8 4 0 0 -19 -8
-43 -15 -46 -44 -62 -36 -21 2 13 9 22 14 21 14 -3 21 65 7 74 -8 5 -8 12 1
25 10 16 11 16 6 2 -3 -10 -1 -18 4 -18 6 0 10 11 10 25 0 16 6 25 16 25 14 0
15 -7 11 -37z m68 -10 c-7 -47 -16 -57 -11 -12 5 49 5 49 12 49 3 0 3 -17 -1
-37z m2354 2 c6 3 8 12 5 20 -5 11 1 14 21 13 18 -2 30 -10 36 -26 14 -36 9
-41 -7 -7 -12 25 -14 26 -8 5 23 -89 29 -138 24 -185 -3 -30 -9 -57 -12 -60
-3 -4 -20 1 -37 9 -28 15 -31 15 -45 -6 -8 -12 -14 -24 -12 -27 2 -3 -6 -7
-19 -7 -17 -1 -22 3 -20 20 4 34 4 34 23 39 10 3 6 5 -11 6 -16 1 -26 -3 -22
-9 3 -5 2 -17 -3 -26 -12 -21 -27 -1 -18 24 5 14 4 14 -8 -2 -20 -25 -36 -12
-30 27 2 17 6 46 8 62 3 17 5 52 5 78 1 27 5 46 10 42 5 -3 12 3 14 12 3 10 6
-11 7 -47 2 -36 5 -54 7 -40 6 30 23 51 24 30 0 -8 5 -2 10 14 5 20 4 34 -3
43 -9 11 -8 13 3 11 8 -2 13 3 11 12 -1 9 5 6 18 -8 11 -13 24 -21 29 -17z
m-2179 -16 c-4 -22 -7 -62 -6 -89 0 -27 -2 -46 -6 -42 -10 11 -17 112 -7 106
5 -3 9 11 9 30 0 20 4 36 9 36 4 0 5 -18 1 -41z m-546 19 c-3 -4 -11 -5 -19
-1 -21 7 -19 12 4 10 11 0 18 -5 15 -9z m331 -5 c-2 -10 -4 -26 -4 -36 -1 -10
-5 -16 -9 -13 -11 6 -3 66 8 66 5 0 7 -8 5 -17z m-985 -45 c0 -58 25 -213 41
-255 6 -18 6 -30 -2 -39 -15 -18 -29 -18 -29 1 0 8 5 15 12 15 7 0 6 5 -4 13
-20 15 -28 57 -34 177 -3 52 -7 105 -9 118 -2 14 1 22 11 22 10 0 14 -14 14
-52z m113 32 c3 -11 1 -20 -4 -20 -5 0 -9 9 -9 20 0 11 2 20 4 20 2 0 6 -9 9
-20z m54 -2 c-3 -8 -6 -5 -6 6 -1 11 2 17 5 13 3 -3 4 -12 1 -19z m29 -57 c4
-22 8 -30 13 -22 6 9 10 7 14 -8 4 -17 1 -21 -19 -21 -23 0 -24 2 -23 68 1 37
3 56 6 42 2 -14 6 -40 9 -59z m71 57 c-3 -8 -6 -5 -6 6 -1 11 2 17 5 13 3 -3
4 -12 1 -19z m33 -30 c0 -51 -5 -47 -14 10 -4 29 -3 41 4 37 5 -3 10 -25 10
-47z m2217 15 c-3 -10 -5 -4 -5 12 0 17 2 24 5 18 2 -7 2 -21 0 -30z m-2429
-37 c1 -17 7 -71 13 -121 9 -68 8 -90 0 -93 -8 -3 -7 -8 4 -16 22 -16 26 -99
4 -104 -9 -1 -20 8 -28 24 -10 24 -9 30 10 50 l22 24 -30 0 c-31 0 -32 2 -48
72 -9 40 -19 107 -22 150 l-6 78 40 -17 c32 -14 39 -22 41 -47z m789 42 c-3
-8 -6 -5 -6 6 -1 11 2 17 5 13 3 -3 4 -12 1 -19z m-480 -20 c-3 -8 -6 -5 -6 6
-1 11 2 17 5 13 3 -3 4 -12 1 -19z m79 -96 c-6 -5 -26 34 -36 69 -15 50 3 40
22 -13 10 -28 16 -53 14 -56z m425 81 c-12 -20 -14 -14 -5 12 4 9 9 14 11 11
3 -2 0 -13 -6 -23z m-779 -28 c-3 -5 2 -4 11 4 15 12 17 11 17 -8 0 -11 -6
-21 -12 -21 -10 0 -9 -3 1 -9 7 -5 17 -30 22 -57 7 -38 6 -51 -6 -63 -13 -14
-15 -13 -15 2 0 10 -3 16 -7 14 -5 -3 -8 7 -9 21 0 15 -4 52 -8 82 -11 78 -10
99 3 65 5 -11 6 -24 3 -30z m1275 -2 c-3 -10 -5 -2 -5 17 0 19 2 27 5 18 2
-10 2 -26 0 -35z m-887 22 c0 6 3 6 8 0 18 -26 67 -55 93 -55 15 0 41 11 57
25 39 32 49 21 12 -15 -16 -15 -27 -30 -24 -33 2 -2 -2 -10 -11 -17 -11 -9
-27 -10 -58 -4 -23 5 -41 12 -39 17 3 10 -28 70 -35 64 -2 -3 3 -17 12 -31 10
-15 13 -26 7 -26 -14 0 -35 38 -38 70 -2 19 -1 21 6 10 5 -8 10 -10 10 -5z
m363 -5 c-3 -12 -8 -19 -11 -16 -5 6 5 36 12 36 2 0 2 -9 -1 -20z m1640 5 c-3
-9 -8 -14 -10 -11 -3 3 -2 9 2 15 9 16 15 13 8 -4z m-1533 -5 c0 -5 -4 -10
-10 -10 -5 0 -10 5 -10 10 0 6 5 10 10 10 6 0 10 -4 10 -10z m1580 -24 c0 -29
-6 -35 -29 -29 -13 3 -17 11 -14 24 7 24 20 25 26 2 2 -10 4 -6 2 9 -1 15 2
25 7 22 4 -3 8 -15 8 -28z m-2286 -36 l7 -35 -16 34 c-17 37 -20 60 -6 46 5
-6 12 -26 15 -45z m2083 18 c-3 -7 -5 -2 -5 12 0 14 2 19 5 13 2 -7 2 -19 0
-25z m-2047 -4 c0 -14 3 -23 8 -21 4 3 8 -15 8 -39 1 -25 0 -44 -1 -42 -9 9
-31 128 -24 128 5 0 9 -12 9 -26z m527 -26 c-2 -13 -4 -5 -4 17 -1 22 1 32 4
23 2 -10 2 -28 0 -40z m107 30 c-5 -7 -7 -22 -6 -33 2 -17 1 -17 -8 -5 -7 11
-8 6 -4 -20 4 -26 3 -31 -5 -20 -12 17 -13 4 -2 -24 7 -19 17 6 36 97 3 15 9
27 14 27 5 0 4 -19 -2 -42 -8 -31 -7 -43 1 -46 7 -2 10 -8 7 -12 -3 -5 -6 -24
-7 -43 -1 -30 -3 -33 -29 -29 -16 2 -27 8 -24 12 2 4 -1 21 -7 37 -10 25 -8
37 12 77 12 26 24 45 27 42 3 -2 1 -11 -3 -18z m54 -50 c-3 -21 -4 -21 -18 -3
-9 11 -10 16 -2 11 8 -5 12 2 13 26 1 23 3 26 6 11 2 -13 3 -33 1 -45z m187
-73 c-2 -11 -7 -47 -10 -80 -8 -78 -29 -149 -61 -205 -14 -25 -22 -36 -19 -25
3 11 12 60 20 110 7 49 23 125 35 168 14 52 19 92 16 125 -5 44 -5 43 9 -13 8
-33 13 -69 10 -80z m2008 79 c2 -29 1 -58 -4 -65 -5 -9 -9 13 -9 55 0 80 6 84
13 10z m-2943 20 c0 -16 -15 -32 -26 -27 -17 6 -19 -25 -3 -47 9 -13 10 -13 6
2 -6 17 27 55 36 41 3 -4 5 -21 5 -37 0 -16 6 -34 13 -40 17 -14 24 -60 7 -50
-6 4 -8 3 -5 -3 4 -6 -5 -13 -21 -16 -28 -5 -47 2 -24 10 6 3 12 9 12 14 0 6
-5 7 -10 4 -10 -6 -25 24 -34 68 -3 12 -9 37 -15 55 l-10 33 35 -3 c19 -1 34
-3 34 -4z m2037 -56 c-2 -13 -4 -3 -4 22 0 25 2 35 4 23 2 -13 2 -33 0 -45z
m235 2 c-11 -12 -19 -27 -16 -34 2 -6 -3 -20 -12 -31 -8 -11 -12 -14 -8 -6 4
8 9 29 11 48 2 18 8 45 14 60 11 28 11 28 21 6 8 -17 6 -26 -10 -43z m-263
-24 c-6 -26 -13 -45 -16 -43 -2 3 1 26 8 51 6 26 13 45 16 43 2 -3 -1 -26 -8
-51z m58 22 c-3 -7 -5 -2 -5 12 0 14 2 19 5 13 2 -7 2 -19 0 -25z m-1165 3 c8
11 9 10 4 -4 -3 -10 -6 -28 -7 -40 0 -21 -1 -21 -9 -2 -5 11 -8 31 -8 45 0 19
2 20 5 6 4 -15 7 -16 15 -5z m-871 -14 c-10 -9 -11 -8 -5 6 3 10 9 15 12 12 3
-3 0 -11 -7 -18z m169 -61 c0 -34 -18 -4 -24 39 l-6 40 15 -30 c8 -16 14 -39
15 -49z m1772 42 c-7 -7 -10 -5 -7 8 5 29 6 30 12 16 3 -8 1 -18 -5 -24z m995
-20 c-3 -7 -5 -2 -5 12 0 14 2 19 5 13 2 -7 2 -19 0 -25z m-750 -15 c-3 -10
-5 -4 -5 12 0 17 2 24 5 18 2 -7 2 -21 0 -30z m93 12 c23 14 23 -52 1 -109
-15 -39 -26 -25 -12 15 13 37 15 71 3 52 -4 -6 -8 7 -8 30 0 23 1 34 4 24 2
-9 7 -15 12 -12z m-1998 -72 c15 -12 29 -19 31 -16 3 2 10 -5 17 -16 6 -12 8
-21 5 -21 -3 0 -1 -9 5 -19 7 -13 7 -20 -1 -23 -12 -4 -1 -38 12 -38 9 0 3 75
-7 91 -3 5 -1 9 5 9 5 0 12 -19 16 -42 4 -24 11 -47 15 -53 13 -18 20 -46 10
-40 -6 3 -10 13 -10 21 0 8 -5 14 -10 14 -6 0 -8 -17 -5 -42 l5 -43 -12 35
c-6 19 -15 37 -19 40 -3 3 -10 16 -14 29 -5 18 -9 20 -16 10 -11 -18 -32 37
-26 68 4 24 -18 52 -31 38 -4 -4 -1 -10 6 -12 6 -3 12 -12 12 -20 0 -11 -6 -8
-19 8 -11 14 -15 26 -9 30 5 3 -3 14 -18 24 l-27 17 7 -28 c15 -63 15 -68 2
-39 -8 17 -18 48 -22 70 l-7 40 40 -35 c22 -19 51 -45 65 -57z m-394 64 c-1
-2 2 -10 9 -18 10 -12 8 -15 -8 -16 -19 -2 -27 25 -12 40 7 7 17 2 11 -6z
m3017 -36 c-7 -54 -43 -175 -44 -152 -1 8 6 40 13 70 8 31 18 73 21 94 9 56
18 45 10 -12z m-2175 29 c0 -5 -5 -10 -11 -10 -5 0 -7 5 -4 10 3 6 8 10 11 10
2 0 4 -4 4 -10z m2256 -27 c-5 -29 -4 -35 4 -23 9 12 11 12 8 1 -2 -8 -12 -15
-22 -17 -14 -2 -16 3 -10 29 12 59 30 67 20 10z m-3059 5 c-3 -8 -6 -5 -6 6
-1 11 2 17 5 13 3 -3 4 -12 1 -19z m2050 -50 c-2 -13 -4 -3 -4 22 0 25 2 35 4
23 2 -13 2 -33 0 -45z m1077 54 c2 -4 -5 -9 -17 -9 -17 -2 -19 0 -7 7 18 12
18 12 24 2z m-716 -15 c7 -8 6 -19 -3 -37 -14 -24 -14 -24 -15 -3 0 12 -3 28
-6 37 -7 19 9 21 24 3z m39 -9 c-3 -8 -6 -5 -6 6 -1 11 2 17 5 13 3 -3 4 -12
1 -19z m497 -24 c-6 -34 -8 -36 -15 -16 -6 14 -4 30 3 42 17 27 21 19 12 -26z
m-2134 32 c0 -2 -7 -6 -15 -10 -8 -3 -15 -1 -15 4 0 6 7 10 15 10 8 0 15 -2
15 -4z m-862 -48 c6 -24 16 -62 23 -86 12 -44 6 -67 -12 -42 -8 11 -9 10 -4
-7 3 -13 3 -23 -2 -23 -5 0 -10 14 -11 31 -2 22 1 28 10 23 10 -6 10 -5 1 7
-6 8 -11 17 -11 22 0 11 -12 79 -18 100 -3 9 -1 17 4 17 5 0 14 -19 20 -42z
m37 21 c5 -14 2 -25 -6 -30 -11 -7 -11 -9 3 -9 9 0 21 -13 27 -31 15 -43 14
-59 -3 -59 -13 0 -32 44 -27 63 1 4 -5 18 -14 30 -8 12 -15 29 -15 39 0 25 27
22 35 -3z m22 -1 c-3 -8 -6 -5 -6 6 -1 11 2 17 5 13 3 -3 4 -12 1 -19z m176
-54 c4 -4 7 -12 7 -18 0 -27 -28 24 -33 59 l-6 40 12 -37 c7 -20 15 -40 20
-44z m80 35 c4 -19 17 -41 27 -49 9 -8 22 -24 28 -36 12 -23 12 -65 1 -58 -16
9 -19 -36 -5 -58 8 -13 14 -33 13 -45 -1 -19 -11 -23 -13 -5 -3 24 -17 62 -23
62 -4 0 -8 7 -8 15 0 8 4 15 9 15 4 0 8 6 8 14 0 8 6 17 13 19 7 3 5 6 -5 6
-18 1 -22 10 -18 46 2 20 2 20 -13 0 -9 -11 -13 -24 -10 -29 4 -5 1 -6 -4 -3
-14 9 -24 47 -12 47 5 0 9 -6 9 -12 0 -9 3 -8 10 2 5 8 5 17 1 20 -15 10 -42
92 -29 88 7 -3 16 -20 21 -39z m-388 21 c-3 -5 -11 -10 -16 -10 -6 0 -7 5 -4
10 3 6 11 10 16 10 6 0 7 -4 4 -10z m239 -15 c4 -14 6 -26 4 -27 -1 -2 4 -12
10 -24 8 -16 8 -24 -1 -34 -9 -10 -9 -11 1 -6 6 4 12 3 12 -3 0 -6 -9 -15 -20
-21 -17 -9 -22 -7 -29 12 -19 50 -41 92 -35 68 4 -14 9 -31 11 -37 3 -7 1 -13
-5 -13 -5 0 -13 12 -16 28 -4 15 -10 36 -13 47 -3 11 -2 17 1 13 4 -3 19 0 34
8 36 19 39 18 46 -11z m344 11 c31 -11 42 -12 46 -3 3 9 5 8 5 -1 2 -23 -26
-24 -66 -3 -45 24 -40 26 15 7z m123 -14 c-7 -2 -18 1 -23 6 -8 8 -4 9 13 5
13 -4 18 -8 10 -11z m1856 -49 c-2 -16 -4 -5 -4 22 0 28 2 40 4 28 2 -13 2
-35 0 -50z m-1534 37 c-3 -10 -11 -24 -19 -31 -12 -9 -12 -6 -3 20 12 34 30
43 22 11z m1477 -20 c0 -22 -3 -40 -8 -40 -4 0 -6 18 -4 40 2 22 6 40 8 40 2
0 4 -18 4 -40z m-2518 -9 c15 -37 15 -41 -3 -57 -22 -20 -29 -16 -33 18 -1 13
-6 29 -10 36 -8 13 9 42 24 42 4 0 14 -18 22 -39z m177 -31 c0 -8 -7 1 -14 20
-18 46 -17 64 0 25 8 -16 14 -37 14 -45z m210 25 c0 -5 -4 -3 -9 5 -5 8 -9 22
-9 30 0 16 17 -16 18 -35z m80 -2 c12 -42 6 -58 -7 -22 -21 54 -24 72 -13 65
5 -4 15 -23 20 -43z m1668 10 c-3 -10 -5 -4 -5 12 0 17 2 24 5 18 2 -7 2 -21
0 -30z m1019 -7 c-14 -33 -31 -53 -21 -23 19 54 26 69 31 64 3 -2 -2 -21 -10
-41z m-861 2 c-4 -18 -16 -57 -26 -87 -10 -30 -16 -58 -13 -62 3 -5 0 -9 -5
-9 -18 0 -12 39 17 116 29 80 37 92 27 42z m315 28 c0 -3 -4 -8 -10 -11 -5 -3
-10 -1 -10 4 0 6 5 11 10 11 6 0 10 -2 10 -4z m-427 -17 c-6 -6 -9 -18 -6 -25
3 -8 -1 -14 -8 -14 -9 0 -10 -3 -4 -8 7 -5 5 -19 -7 -42 -16 -33 -17 -34 -18
-9 0 14 3 29 7 33 8 7 9 12 11 54 1 13 8 22 19 22 13 0 14 -3 6 -11z m-1531
-30 c-7 -44 -17 -52 -31 -25 -17 30 -9 55 16 52 13 -2 17 -10 15 -27z m2543
21 c3 -6 -1 -7 -9 -4 -18 7 -21 14 -7 14 6 0 13 -4 16 -10z m-2384 -15 c5 4 6
-1 3 -9 -8 -20 -24 -11 -23 12 0 11 2 12 6 4 2 -6 9 -10 14 -7z m1868 -39 c-1
-30 -8 -67 -15 -83 l-13 -28 5 30 c11 76 14 110 6 85 -6 -20 -9 -22 -14 -9 -6
15 15 59 28 59 3 0 4 -24 3 -54z m555 30 c-6 -15 -24 -23 -24 -11 0 8 24 34
28 30 1 -1 0 -10 -4 -19z m37 1 c-14 -14 -14 -28 0 -24 6 1 14 -5 16 -13 4
-13 3 -13 -6 0 -6 8 -11 11 -11 5 0 -5 -7 -2 -15 8 -16 23 -9 48 11 40 11 -4
12 -9 5 -16z m-2236 -16 c-3 -12 -11 -21 -16 -21 -5 0 -9 -10 -8 -22 0 -22 1
-22 9 -3 6 13 7 4 2 -25 -3 -25 -7 -57 -7 -72 0 -14 -3 -24 -7 -22 -3 2 -8 -1
-11 -8 -4 -13 -1 13 8 75 2 17 -8 -6 -24 -53 -16 -47 -30 -80 -30 -75 -1 11
46 192 56 215 3 8 5 19 4 23 -1 5 3 6 9 2 5 -3 10 -1 10 6 0 7 3 10 6 6 3 -3
3 -15 -1 -26z m992 7 c-3 -8 -6 -5 -6 6 -1 11 2 17 5 13 3 -3 4 -12 1 -19z
m456 0 c4 -12 4 -24 2 -27 -3 -2 -5 1 -5 8 0 7 -4 9 -10 6 -5 -3 -10 3 -10 14
0 28 16 27 23 -1z m-2414 -4 c4 3 5 -12 3 -31 l-5 -37 -14 28 c-8 15 -17 25
-20 23 -3 -3 5 -24 17 -45 l23 -40 -22 -34 -23 -33 26 30 c15 18 26 24 26 16
0 -8 -10 -26 -22 -40 l-23 -26 26 23 c35 31 45 28 71 -20 26 -50 27 -59 15
-75 -6 -9 -3 -11 13 -8 18 3 20 0 15 -18 -5 -20 -5 -20 5 -4 9 15 8 23 -7 39
-12 15 -13 19 -3 13 32 -17 48 -38 43 -53 -4 -14 -3 -15 5 -2 9 12 14 11 31
-9 17 -20 19 -27 8 -40 -11 -14 -10 -14 6 -2 13 10 21 11 29 3 11 -11 4 -22
-68 -117 -15 -19 -15 -18 -10 13 4 20 2 31 -4 27 -6 -3 -10 -14 -10 -23 0 -14
-2 -15 -15 -2 -16 17 -9 64 8 53 6 -4 8 2 5 15 -4 12 -2 25 3 28 5 3 9 0 9 -7
0 -7 2 -10 5 -7 3 2 0 19 -6 37 -13 37 -23 32 -26 -12 -1 -38 -13 -77 -22 -77
-6 0 -45 57 -51 75 -2 6 -10 16 -17 23 -7 8 -11 18 -8 23 4 5 1 9 -5 9 -11 0
-41 59 -47 94 -2 11 -7 24 -12 30 -5 6 -11 20 -13 31 -1 11 -6 22 -9 25 -4 3
-9 15 -13 27 -6 17 1 30 31 58 21 20 39 31 41 25 2 -5 7 -8 11 -6z m2058 -16
c-3 -7 -5 -2 -5 12 0 14 2 19 5 13 2 -7 2 -19 0 -25z m443 7 c4 3 6 -5 2 -17
-5 -21 -6 -21 -13 -2 -4 11 -8 13 -8 5 -1 -8 -3 -12 -6 -10 -2 3 -1 16 2 29 6
20 8 21 11 7 2 -9 7 -15 12 -12z m772 16 c8 11 9 11 5 -1 -2 -8 -10 -14 -16
-12 -6 1 -11 -3 -11 -10 0 -6 -2 -9 -5 -6 -3 3 -2 13 2 24 4 12 8 14 11 5 4
-11 6 -11 14 0z m-2993 -50 c0 -14 -1 -14 -6 -1 -3 8 -10 24 -15 35 -9 20 -9
20 6 1 9 -11 16 -27 15 -35z m31 0 c0 -20 -3 -22 -9 -11 -6 8 -8 17 -5 21 2 4
0 10 -6 14 -5 3 -10 11 -10 17 0 7 6 6 15 -2 8 -7 15 -24 15 -39z m845 12 c-4
-21 -11 -45 -16 -53 -9 -15 -8 -4 6 65 9 40 18 29 10 -12z m1381 -11 c-11 -10
-15 4 -8 28 l7 25 3 -23 c2 -13 1 -26 -2 -30z m-2389 31 c-4 -3 -2 -12 4 -19
13 -16 -8 -31 -24 -15 -8 8 -8 11 1 11 7 0 11 3 11 8 -2 13 1 22 8 22 3 0 3
-3 0 -7z m102 -39 c17 -28 19 -39 10 -50 -6 -8 -16 -11 -22 -7 -5 3 -8 2 -5
-3 3 -5 0 -15 -8 -22 -11 -10 -13 -7 -9 20 4 26 3 28 -3 8 -8 -24 -8 -24 -21
9 -13 30 -12 34 10 56 13 13 25 24 26 24 0 1 11 -15 22 -35z m206 24 c5 4 5 2
1 -5 -3 -6 7 -37 24 -69 37 -67 33 -106 -5 -54 -13 18 -27 45 -30 61 -4 16
-11 29 -16 29 -5 0 -8 11 -7 24 2 17 6 22 14 16 6 -6 15 -6 19 -2z m110 -34
c11 -24 20 -32 25 -24 5 8 9 7 13 -5 4 -9 3 -14 -2 -11 -5 3 -8 -10 -6 -29 2
-20 -1 -33 -6 -30 -12 8 -11 -7 1 -42 9 -26 9 -27 -5 -9 -11 14 -15 16 -15 5
-1 -11 -3 -10 -10 3 -11 18 -8 73 4 86 4 4 7 3 6 -3 -6 -26 0 -39 11 -28 9 9
6 20 -9 45 -25 41 -45 91 -33 84 5 -3 16 -22 26 -42z m40 37 c3 -5 1 -12 -5
-16 -5 -3 -10 1 -10 9 0 18 6 21 15 7z m1393 -26 c-3 -3 -9 2 -12 12 -6 14 -5
15 5 6 7 -7 10 -15 7 -18z m27 -17 c-4 -24 -11 -50 -17 -58 -7 -12 -8 -11 -4
5 2 11 7 37 11 58 3 20 8 37 11 37 3 0 3 -19 -1 -42z m379 27 c3 -8 1 -15 -4
-15 -6 0 -10 -8 -10 -17 0 -16 2 -16 11 -3 8 12 10 11 7 -5 -4 -28 -32 -25
-36 3 -6 43 18 72 32 37z m696 -20 c0 -5 -5 -3 -10 5 -5 8 -10 20 -10 25 0 6
5 3 10 -5 5 -8 10 -19 10 -25z m74 20 c2 -7 -2 -12 -10 -12 -8 0 -14 5 -14 11
0 6 -5 4 -10 -4 -8 -13 -10 -13 -10 2 0 19 37 21 44 3z m-828 -32 c-11 -11
-17 4 -9 23 7 18 8 18 11 1 2 -10 1 -21 -2 -24z m-2222 -39 c15 -37 25 -72 22
-79 -8 -21 19 -12 38 13 18 23 18 24 0 14 -16 -8 -19 -6 -21 14 -2 13 -4 35
-5 48 -2 14 -8 22 -15 19 -7 -3 -13 -1 -13 5 0 5 7 13 16 16 11 4 22 -9 41
-50 l25 -56 -21 -19 c-12 -11 -21 -27 -21 -37 0 -9 -4 -23 -9 -31 -8 -12 -15
-8 -38 19 -43 50 -46 60 -30 78 21 25 32 46 20 39 -12 -7 -26 20 -18 33 3 4
-2 10 -10 14 -16 6 -21 -19 -6 -28 19 -12 19 -46 -1 -57 -18 -10 -19 -8 -13
13 7 19 6 21 -6 11 -22 -18 -46 22 -26 42 8 8 17 12 20 9 3 -3 8 4 12 15 12
38 32 22 59 -45z m2356 25 c0 -28 -4 -39 -12 -36 -17 5 -9 77 8 77 2 0 4 -18
4 -41z m302 7 c2 -19 0 -32 -4 -30 -4 3 -8 -5 -8 -18 0 -14 -6 -33 -14 -44
-13 -17 -14 -15 -5 21 5 22 12 55 16 73 7 41 10 40 15 -2z m425 19 c0 -8 -5
-11 -10 -8 -5 3 -7 0 -5 -8 3 -8 12 -12 19 -11 8 2 11 1 7 -3 -3 -4 -9 -6 -12
-6 -4 1 -18 -11 -32 -26 -14 -16 -22 -21 -18 -13 7 13 6 13 -10 1 -14 -12 -19
-12 -29 -1 -8 9 -8 11 -1 7 7 -4 15 0 18 9 4 10 13 13 26 9 12 -4 20 -2 20 5
0 6 -5 8 -12 4 -7 -4 -2 7 11 24 25 36 28 38 28 17z m-2590 -17 c-3 -8 -6 -5
-6 6 -1 11 2 17 5 13 3 -3 4 -12 1 -19z m-287 2 c0 -5 -5 -10 -11 -10 -5 0 -7
5 -4 10 3 6 8 10 11 10 2 0 4 -4 4 -10z m1470 -16 c0 -14 -4 -23 -10 -19 -5 3
-10 1 -10 -6 0 -7 -2 -10 -5 -7 -6 5 15 58 22 58 1 0 3 -12 3 -26z m181 -1
c-12 -20 -14 -14 -5 12 4 9 9 14 11 11 3 -2 0 -13 -6 -23z m542 7 c-3 -12 -8
-19 -11 -16 -5 6 5 36 12 36 2 0 2 -9 -1 -20z m408 -3 c-10 -9 -11 -8 -5 6 3
10 9 15 12 12 3 -3 0 -11 -7 -18z m239 19 c0 -2 -8 -10 -17 -17 -16 -13 -17
-12 -4 4 13 16 21 21 21 13z m-2770 -32 c0 -8 -4 -12 -10 -9 -5 3 -10 10 -10
16 0 5 5 9 10 9 6 0 10 -7 10 -16z m1937 -6 c-3 -8 -6 -5 -6 6 -1 11 2 17 5
13 3 -3 4 -12 1 -19z m222 -18 c0 -10 -3 -8 -9 5 -12 27 -12 43 0 25 5 -8 9
-22 9 -30z m152 -7 c-9 -15 -10 -14 -7 7 8 44 8 45 13 28 2 -10 0 -25 -6 -35z
m-2169 13 c3 -14 1 -31 -3 -38 -6 -8 -9 1 -9 25 0 42 6 48 12 13z m-236 -72
c-3 -9 -1 -12 4 -9 6 3 10 -1 10 -10 0 -9 5 -13 10 -10 17 10 11 -11 -9 -36
-15 -19 -21 -21 -33 -11 -8 6 -19 8 -23 4 -5 -4 -5 -1 -1 6 4 7 13 9 19 6 7
-4 9 -4 5 1 -4 4 -2 15 5 23 10 13 9 14 -10 3 -21 -10 -24 -8 -38 25 -19 46
-19 43 7 71 l22 24 19 -37 c10 -20 16 -42 13 -50z m2094 65 c0 -11 -27 -12
-34 0 -3 4 -3 11 0 14 8 8 34 -3 34 -14z m-1956 -4 c3 -8 1 -15 -4 -15 -6 0
-10 7 -10 15 0 8 2 15 4 15 2 0 6 -7 10 -15z m896 -22 c-11 -17 -11 -17 -6 0
3 10 6 24 7 30 0 9 2 9 5 0 3 -7 0 -20 -6 -30z m503 25 c-4 -7 -8 -19 -9 -26
-2 -8 -6 -17 -10 -20 -4 -4 -4 1 -1 10 3 10 2 20 -3 23 -6 4 -10 1 -10 -4 0
-6 -4 -11 -8 -11 -5 0 -9 7 -9 16 0 10 7 14 19 11 10 -3 18 -1 18 4 0 5 5 9
11 9 6 0 7 -5 2 -12z m433 -25 c-11 -11 -17 4 -9 23 7 18 8 18 11 1 2 -10 1
-21 -2 -24z m810 0 c-11 -11 -17 4 -9 23 7 18 8 18 11 1 2 -10 1 -21 -2 -24z
m-915 10 c13 -16 12 -17 -3 -4 -10 7 -18 15 -18 17 0 8 8 3 21 -13z m-391 -2
c0 -6 -4 -13 -10 -16 -5 -3 -10 1 -10 9 0 9 5 16 10 16 6 0 10 -4 10 -9z m948
-16 c-6 -14 -13 -23 -15 -21 -5 5 15 46 22 46 3 0 -1 -11 -7 -25z m-618 5 c0
-5 -5 -10 -11 -10 -5 0 -7 5 -4 10 3 6 8 10 11 10 2 0 4 -4 4 -10z m37 -22
c-15 -9 -19 -4 -11 16 5 14 9 15 15 5 5 -8 3 -17 -4 -21z m46 4 c-3 -12 -9
-22 -14 -22 -5 0 -3 11 3 25 13 30 20 28 11 -3z m-1713 -16 c0 -6 -5 -4 -11 4
-8 12 -9 10 -4 -7 4 -16 2 -23 -7 -23 -11 0 -15 28 -9 59 2 8 31 -22 31 -33z
m1050 19 c0 -8 -4 -15 -10 -15 -5 0 -7 7 -4 15 4 8 8 15 10 15 2 0 4 -7 4 -15z
m1610 9 c0 -8 -19 -13 -24 -6 -3 5 1 9 9 9 8 0 15 -2 15 -3z m-2772 -29 c-3
-3 -9 2 -12 12 -6 14 -5 15 5 6 7 -7 10 -15 7 -18z m1044 -15 c-23 -54 -46
-54 -25 0 9 22 22 40 29 40 9 0 8 -10 -4 -40z m252 2 c-4 -9 -8 -21 -8 -26 -1
-5 -7 -10 -14 -12 -7 -1 -8 0 -2 3 5 2 8 8 5 13 -3 5 0 21 6 37 7 16 13 23 16
15 3 -7 1 -20 -3 -30z m23 6 c-3 -7 -5 -2 -5 12 0 14 2 19 5 13 2 -7 2 -19 0
-25z m37 23 c3 -5 -1 -11 -9 -14 -9 -4 -12 -1 -8 9 6 16 10 17 17 5z m711 -10
c-3 -6 -11 -11 -16 -11 -5 0 -4 6 3 14 14 16 24 13 13 -3z m177 12 c-6 -2 -9
-10 -6 -15 4 -7 2 -8 -5 -4 -13 9 -5 26 12 25 9 0 8 -2 -1 -6z m478 -3 c0 -5
-5 -10 -11 -10 -5 0 -7 -5 -3 -12 4 -7 3 -8 -4 -4 -6 4 -9 13 -5 21 6 17 23
20 23 5z m-2851 -49 c6 -18 9 -36 7 -40 -2 -3 2 -12 10 -19 9 -8 14 -9 14 -2
0 6 4 8 10 5 6 -4 5 -11 -2 -19 -10 -10 -16 -9 -30 8 -9 12 -17 16 -18 9 0 -6
5 -15 10 -18 6 -3 10 -14 10 -23 0 -15 -2 -15 -10 -2 -8 13 -10 13 -10 1 0
-10 -13 -3 -34 18 -19 19 -32 40 -29 47 9 23 21 16 34 -21 7 -19 17 -35 21
-35 11 0 10 7 -7 43 -14 29 -14 30 0 13 19 -25 19 -9 0 24 -8 14 -14 19 -15
11 0 -8 -2 -12 -5 -9 -3 3 -1 18 5 33 12 32 22 26 39 -24z m1087 11 c0 -24 -5
-39 -13 -39 -7 0 -13 3 -13 7 0 10 21 70 25 70 1 0 2 -17 1 -38z m504 17 c0
-14 -27 -10 -33 5 -4 10 0 12 14 9 10 -3 19 -9 19 -14z m252 -11 c-6 -6 -12
-4 -16 7 -3 9 -2 13 4 10 6 -3 10 0 11 7 0 10 2 10 6 0 3 -8 1 -18 -5 -24z
m-327 -8 c-9 -16 -17 -30 -20 -30 -2 0 1 14 6 30 6 17 15 30 20 30 5 0 3 -13
-6 -30z m505 4 c0 -8 -4 -14 -9 -14 -11 0 -22 26 -14 34 9 9 23 -3 23 -20z
m871 3 c-10 -9 -11 -8 -5 6 3 10 9 15 12 12 3 -3 0 -11 -7 -18z m-2492 -30 c1
-5 -3 -5 -9 -2 -5 3 -10 16 -9 28 0 21 1 21 9 2 5 -11 9 -24 9 -28z m871 33
c0 -5 -5 -10 -11 -10 -5 0 -7 5 -4 10 3 6 8 10 11 10 2 0 4 -4 4 -10z m611
-17 c-8 -15 -10 -15 -11 -2 0 17 10 32 18 25 2 -3 -1 -13 -7 -23z m919 22 c0
-2 -10 -9 -22 -15 -22 -11 -22 -10 -4 4 21 17 26 19 26 11z m-2532 -34 c9 -25
8 -29 -4 -24 -8 3 -14 10 -14 16 0 6 -3 7 -6 4 -4 -4 -1 -13 6 -22 7 -8 9 -15
4 -15 -5 0 -2 -5 6 -11 13 -9 13 -10 0 -7 -8 3 -21 16 -28 31 -11 22 -11 29 0
42 19 21 25 19 36 -14z m682 19 c0 -5 -2 -10 -4 -10 -3 0 -8 5 -11 10 -3 6 -1
10 4 10 6 0 11 -4 11 -10z m1105 0 c-3 -5 -2 -10 4 -10 5 0 12 5 14 10 3 6 4
5 3 -2 -3 -17 -28 -17 -33 0 -3 6 0 12 7 12 6 0 8 -4 5 -10z m-755 -15 c0 -8
-4 -15 -10 -15 -5 0 -10 7 -10 15 0 8 5 15 10 15 6 0 10 -7 10 -15z m860 9 c0
-8 -19 -13 -24 -6 -3 5 1 9 9 9 8 0 15 -2 15 -3z m-1820 -32 c0 -15 -2 -15
-10 -2 -13 20 -13 33 0 25 6 -3 10 -14 10 -23z m211 11 c13 -16 12 -17 -3 -4
-10 7 -18 15 -18 17 0 8 8 3 21 -13z m410 -10 c-12 -20 -14 -14 -5 12 4 9 9
14 11 11 3 -2 0 -13 -6 -23z m299 7 c-6 -11 -7 -21 -3 -21 4 -1 13 -2 18 -4 6
-1 15 -3 22 -3 12 -2 6 -39 -9 -48 -5 -3 -6 5 -2 20 5 23 4 26 -17 23 -13 -2
-25 -9 -25 -15 -1 -7 -2 -20 -3 -29 -1 -14 -3 -15 -13 -4 -11 11 -10 14 1 18
7 3 9 8 4 12 -12 7 13 71 27 71 7 0 7 -6 0 -20z m200 10 c0 -5 -5 -10 -11 -10
-5 0 -7 5 -4 10 3 6 8 10 11 10 2 0 4 -4 4 -10z m1359 6 c-2 -2 -15 -9 -29
-15 -24 -11 -24 -11 -6 3 16 13 49 24 35 12z m-2444 -16 c3 -5 1 -10 -4 -10
-6 0 -11 5 -11 10 0 6 2 10 4 10 3 0 8 -4 11 -10z m59 -7 c-5 -15 -3 -15 10 1
21 26 20 11 -1 -25 -18 -31 -28 -35 -38 -19 -4 6 -1 9 7 8 7 -2 13 6 14 17 1
28 3 35 9 35 2 0 2 -8 -1 -17z m67 -26 c-13 -13 -15 1 -4 30 7 17 8 17 11 -1
2 -10 -1 -23 -7 -29z m64 -57 c-16 -49 -32 -87 -36 -85 -10 7 4 63 32 129 34
83 37 58 4 -44z m1548 80 c-3 -12 -8 -19 -11 -16 -5 6 5 36 12 36 2 0 2 -9 -1
-20z m-1947 -2 c4 -7 3 -8 -4 -4 -15 9 -16 -6 -2 -22 5 -7 3 -6 -6 2 -9 8 -13
19 -10 25 9 14 13 14 22 -1z m375 -5 c13 -16 12 -17 -3 -4 -10 7 -18 15 -18
17 0 8 8 3 21 -13z m1086 -5 c-3 -8 -6 -5 -6 6 -1 11 2 17 5 13 3 -3 4 -12 1
-19z m443 18 c0 -2 -6 -9 -13 -15 -10 -8 -14 -7 -14 4 0 8 6 15 14 15 7 0 13
-2 13 -4z m230 -6 c0 -5 -10 -10 -22 -10 -19 0 -20 2 -8 10 19 13 30 13 30 0z
m-1150 -9 c0 -6 -4 -13 -10 -16 -5 -3 -10 1 -10 9 0 9 5 16 10 16 6 0 10 -4
10 -9z m49 -45 c-9 -8 -10 -7 -5 7 3 10 7 26 7 35 1 9 4 6 6 -7 3 -13 -1 -28
-8 -35z m164 34 c-6 -22 -23 -38 -23 -21 0 17 12 41 20 41 5 0 6 -9 3 -20z
m41 11 c3 -5 -1 -14 -9 -21 -13 -10 -15 -9 -15 9 0 21 14 28 24 12z m106 5 c0
-3 -4 -8 -10 -11 -5 -3 -10 -1 -10 4 0 6 5 11 10 11 6 0 10 -2 10 -4z m70 -11
c0 -8 -4 -15 -10 -15 -5 0 -7 7 -4 15 4 8 8 15 10 15 2 0 4 -7 4 -15z m266 3
c4 -7 3 -8 -4 -4 -7 4 -12 2 -12 -5 0 -7 -3 -10 -6 -6 -6 5 3 27 11 27 2 0 7
-5 11 -12z m94 2 c0 -5 -5 -10 -11 -10 -5 0 -7 5 -4 10 3 6 8 10 11 10 2 0 4
-4 4 -10z m228 -15 c-3 -3 -9 2 -12 12 -6 14 -5 15 5 6 7 -7 10 -15 7 -18z
m-2059 -11 c4 3 5 -8 3 -25 -3 -18 0 -29 7 -29 7 0 9 5 6 10 -3 6 -3 20 0 31
6 17 9 19 16 8 13 -20 11 -37 -2 -19 -9 12 -10 11 -6 -6 2 -12 0 -29 -5 -38
-8 -15 -12 -14 -30 9 -15 19 -17 29 -9 39 8 9 7 13 -6 13 -8 0 -18 -9 -21 -20
-3 -12 -7 -15 -12 -7 -4 6 2 22 14 35 17 20 22 21 29 9 5 -8 12 -12 16 -10z
m120 -1 c7 -14 8 -24 1 -28 -11 -7 -31 35 -23 48 6 10 7 9 22 -20z m101 -15
c0 -4 -5 -8 -12 -8 -6 0 -8 3 -5 7 4 3 -1 16 -10 27 -18 21 -18 21 5 2 12 -11
22 -23 22 -28z m44 34 c3 -5 -1 -9 -9 -9 -8 0 -12 4 -9 9 3 4 7 8 9 8 2 0 6
-4 9 -8z m592 -29 c-8 -15 -15 -22 -16 -15 0 17 20 55 27 49 2 -3 -2 -18 -11
-34z m117 24 c3 -8 -1 -14 -8 -14 -7 0 -11 6 -8 14 3 7 6 13 8 13 2 0 5 -6 8
-13z m236 -41 c-9 -8 -10 -7 -5 7 3 10 7 26 7 35 1 9 4 6 6 -7 3 -13 -1 -28
-8 -35z m1467 42 c4 -7 4 -10 -1 -6 -4 4 -16 3 -27 -3 -11 -6 -22 -8 -25 -5
-5 4 16 16 44 25 1 1 5 -5 9 -11z m-1092 -13 c-4 -8 -11 -15 -16 -15 -6 0 -5
6 2 15 7 8 14 15 16 15 2 0 1 -7 -2 -15z m586 11 c0 -2 -7 -6 -15 -10 -8 -3
-15 -1 -15 4 0 6 7 10 15 10 8 0 15 -2 15 -4z m-1812 -80 c-11 -13 -10 -39 1
-32 5 4 6 -4 3 -16 -5 -19 -7 -20 -10 -5 -2 9 -7 17 -12 17 -5 0 -6 7 -3 17 5
12 3 14 -8 8 -11 -6 -12 -5 -2 5 9 9 9 19 2 33 -7 13 -8 17 -1 13 6 -3 14 4
18 16 7 21 9 20 14 -12 3 -19 3 -39 -2 -44z m443 51 c-10 -9 -11 -8 -5 6 3 10
9 15 12 12 3 -3 0 -11 -7 -18z m1779 13 c0 -5 -5 -10 -11 -10 -5 0 -7 5 -4 10
3 6 8 10 11 10 2 0 4 -4 4 -10z m-1420 -15 c0 -8 -4 -15 -10 -15 -5 0 -7 7 -4
15 4 8 8 15 10 15 2 0 4 -7 4 -15z m674 0 c-4 -8 -10 -15 -15 -15 -4 0 -6 7
-3 15 4 8 10 15 15 15 4 0 6 -7 3 -15z m-1761 -46 c-4 -4 -9 6 -10 24 -1 30
-1 31 8 8 5 -14 6 -28 2 -32z m80 39 c-5 -7 -9 -40 -8 -73 3 -78 -4 -88 -26
-34 -11 30 -14 48 -7 56 6 7 14 10 19 7 5 -3 9 -1 9 5 0 5 -6 11 -12 14 -9 3
-7 10 7 21 24 19 31 20 18 4z m2050 5 c-7 -2 -19 -2 -25 0 -7 3 -2 5 12 5 14
0 19 -2 13 -5z m287 3 c0 -3 -4 -8 -10 -11 -5 -3 -10 -1 -10 4 0 6 5 11 10 11
6 0 10 -2 10 -4z m-2820 -33 c0 -19 -13 -9 -16 12 -1 8 2 13 7 9 5 -3 9 -12 9
-21z m107 5 c-3 -8 -6 -5 -6 6 -1 11 2 17 5 13 3 -3 4 -12 1 -19z m732 -23 c0
-5 -4 -3 -9 5 -5 8 -9 22 -9 30 0 16 17 -16 18 -35z m492 22 c-10 -9 -11 -8
-5 6 3 10 9 15 12 12 3 -3 0 -11 -7 -18z m782 9 c13 4 10 -14 -13 -103 l-27
-108 -39 0 c-23 0 -44 -6 -51 -15 -11 -13 -12 -13 -12 0 0 8 6 24 14 34 19 26
48 125 41 143 -4 9 -2 11 6 7 7 -5 9 1 6 19 -3 15 -2 25 1 22 4 -2 13 0 21 5
8 5 19 5 26 -1 6 -5 18 -7 27 -3z m-1857 -33 c-11 -11 -19 6 -11 24 8 17 8 17
12 0 3 -10 2 -21 -1 -24z m284 28 c0 -6 -4 -13 -10 -16 -5 -3 -10 1 -10 9 0 9
5 16 10 16 6 0 10 -4 10 -9z m47 -29 c-14 -17 -22 0 -12 26 5 14 7 14 15 2 5
-9 4 -20 -3 -28z m533 28 c0 -5 -5 -10 -11 -10 -5 0 -7 5 -4 10 3 6 8 10 11
10 2 0 4 -4 4 -10z m-787 -50 c4 0 5 -6 1 -12 -5 -9 -4 -10 4 -3 6 6 18 24 27
40 15 26 16 27 10 5 -4 -14 -7 -33 -8 -42 -1 -9 -6 -14 -12 -10 -5 3 2 -9 18
-27 15 -18 28 -42 29 -54 2 -41 3 -46 11 -53 11 -12 8 -21 -8 -21 -8 0 -12 4
-9 9 3 5 -5 17 -17 27 -21 17 -22 22 -11 47 12 27 11 28 -3 9 -14 -17 -17 -18
-25 -5 -9 14 -11 22 -9 36 0 4 -4 10 -9 13 -5 3 -17 21 -26 39 -21 41 -10 65
13 28 8 -14 19 -26 24 -26z m306 14 c-6 -16 -13 -24 -16 -17 -5 13 16 58 23
50 3 -2 -1 -17 -7 -33z m1621 21 c0 -17 -2 -18 -24 -9 -23 9 -20 24 4 24 11 0
20 -7 20 -15z m51 5 c5 0 9 -4 9 -10 0 -5 -11 -10 -25 -10 -16 0 -25 6 -25 16
0 11 5 14 16 10 9 -3 20 -6 25 -6z m282 3 c-7 -2 -21 -2 -30 0 -10 3 -4 5 12
5 17 0 24 -2 18 -5z m-1407 -29 c-4 -9 -9 -15 -11 -12 -3 3 -3 13 1 22 4 9 9
15 11 12 3 -3 3 -13 -1 -22z m504 22 c0 -2 -9 -6 -20 -9 -11 -3 -18 -1 -14 4
5 9 34 13 34 5z m-876 -33 c-4 -15 -7 -33 -7 -40 0 -7 -3 -13 -7 -13 -9 0 -34
-81 -31 -99 1 -7 -2 -10 -7 -7 -6 3 -12 3 -15 -1 -5 -11 1 8 36 105 29 81 44
107 31 55z m1569 20 c-7 -2 -21 -2 -30 0 -10 3 -4 5 12 5 17 0 24 -2 18 -5z
m419 -23 c-2 -16 -8 -30 -13 -30 -5 0 -6 7 -4 15 3 8 7 22 10 30 8 25 12 17 7
-15z m-2300 -12 c-8 -8 -9 -4 -5 13 4 13 8 18 11 10 2 -7 -1 -18 -6 -23z m105
11 c2 -16 -1 -18 -11 -10 -7 6 -17 7 -22 3 -4 -4 -2 1 5 11 18 23 26 22 28 -4z
m1694 10 c35 0 83 -4 106 -6 38 -5 42 -8 48 -40 3 -18 10 -31 15 -28 4 3 6 -5
2 -17 -3 -14 -1 -19 6 -14 8 4 10 2 6 -8 -3 -8 4 -33 16 -55 27 -54 44 -99 32
-86 -5 6 -24 42 -41 80 -16 39 -35 69 -40 68 -5 -1 -7 7 -4 18 4 15 0 22 -16
26 -11 3 -21 9 -21 14 0 5 -4 9 -10 9 -9 0 -4 -19 53 -183 30 -87 32 -99 18
-109 -13 -10 -14 -10 -4 1 9 11 8 22 -6 50 -10 20 -26 62 -35 94 -17 59 -31
78 -21 30 3 -16 -8 -2 -27 35 -18 34 -36 62 -42 62 -5 0 -6 -26 -3 -62 6 -65
36 -150 89 -253 36 -71 78 -165 74 -165 -2 0 -23 29 -46 65 -23 36 -47 62 -53
58 -6 -3 -7 -1 -3 5 4 6 0 22 -8 34 -8 13 -20 42 -27 65 -6 23 -16 40 -21 37
-5 -3 -14 8 -21 25 -6 17 -15 31 -19 31 -5 0 -1 -17 9 -37 9 -21 38 -99 64
-173 26 -74 48 -128 49 -120 0 8 10 -3 22 -25 33 -62 50 -108 39 -100 -19 11
-11 -9 14 -40 29 -35 30 -32 10 24 -8 23 -14 45 -13 49 1 4 -20 51 -46 105
-27 54 -46 100 -43 103 6 6 94 -127 107 -162 13 -33 13 -57 0 -49 -5 3 -10 1
-10 -4 0 -6 2 -11 4 -11 2 0 12 -3 20 -6 12 -5 15 -2 9 12 -4 12 -3 15 5 10
21 -13 9 33 -38 139 -28 63 -32 95 -6 42 23 -48 44 -76 34 -46 -4 9 -1 16 8
16 7 0 11 -4 8 -8 -3 -5 3 -21 12 -36 l16 -28 -21 25 c-11 14 -21 21 -21 16 0
-12 41 -56 52 -56 5 0 7 15 4 33 -6 38 11 100 26 91 6 -4 8 -29 4 -63 -3 -31
-6 -65 -6 -76 0 -16 -2 -17 -9 -6 -6 10 -9 -11 -9 -60 0 -57 -7 -97 -31 -171
-18 -54 -36 -98 -40 -98 -14 0 -19 -37 -7 -50 8 -8 7 -10 -6 -5 -17 7 -32 -21
-33 -60 0 -11 -5 -20 -11 -20 -6 0 -27 -20 -45 -45 -35 -45 -74 -73 -119 -84
l-25 -7 25 16 25 15 -30 -6 c-16 -3 -37 -8 -46 -10 -19 -5 -28 20 -20 53 5 17
10 20 21 13 21 -14 34 -12 23 3 -6 6 -13 21 -17 32 -6 17 -4 17 18 -4 31 -29
34 -16 11 50 -25 72 -46 110 -55 104 -6 -3 -7 1 -4 9 3 8 -2 25 -10 39 -9 13
-32 69 -50 125 -36 106 -55 148 -56 122 0 -23 40 -150 67 -207 35 -79 64 -176
54 -186 -5 -5 -8 -1 -8 9 1 12 -3 18 -13 16 -8 -2 -12 -1 -8 3 4 4 -6 31 -23
59 -16 29 -29 59 -29 68 0 21 -41 148 -47 148 -3 0 -3 -24 0 -52 l6 -53 -29
55 c-16 30 -29 61 -30 69 0 8 -6 19 -14 25 -14 12 -10 34 54 261 13 44 28 100
35 124 11 40 13 43 23 25 9 -15 10 -7 6 36 -4 43 -3 52 6 40 9 -12 11 -9 7 17
-3 28 -1 31 11 20 13 -10 14 -8 7 13 -4 14 -7 27 -7 30 -1 36 4 50 17 50 12 0
14 7 9 28 -4 21 -3 24 5 12 9 -12 11 -10 11 13 0 16 4 26 8 23 5 -3 37 -6 73
-7z m-2581 -61 c0 -9 -3 -19 -7 -21 -5 -3 -8 7 -9 21 0 15 -4 36 -8 47 -5 12
-2 10 8 -5 8 -14 15 -33 16 -42z m684 39 c-3 -11 -2 -17 3 -14 5 3 10 -11 11
-31 4 -45 -4 -39 -21 20 -12 38 -12 45 0 45 9 0 11 -7 7 -20z m181 1 c4 4 6 0
3 -8 -3 -9 -17 -15 -36 -15 -29 -1 -30 0 -15 17 11 12 20 15 28 8 6 -5 15 -6
20 -2z m755 5 c0 -1 -9 -7 -19 -13 -19 -10 -54 -4 -47 9 4 6 66 10 66 4z
m1167 -35 l2 -23 -20 24 c-24 29 -25 45 -1 32 10 -5 18 -20 19 -33z m46 0 c6
-44 4 -44 -15 -3 -12 27 -13 35 -3 35 7 0 15 -15 18 -32z m-1908 9 c13 17 14
17 9 -4 -9 -32 -30 -36 -31 -4 0 15 1 19 4 8 5 -18 5 -18 18 0z m1953 -6 c3
-8 -1 -12 -9 -9 -7 2 -15 10 -17 17 -3 8 1 12 9 9 7 -2 15 -10 17 -17z m-2075
-5 c17 -13 14 -51 -4 -40 -12 7 -11 -10 1 -22 7 -7 6 -16 -3 -28 -13 -17 -14
-17 -20 -2 -4 9 -3 14 2 11 5 -3 13 0 17 6 5 9 0 10 -14 7 -24 -7 -26 0 -16
51 7 34 11 36 37 17z m2133 2 c4 -7 4 -10 -1 -6 -4 4 -15 2 -24 -5 -14 -11
-14 -10 -2 6 16 20 18 21 27 5z m-2046 -8 c0 -5 -7 -10 -16 -10 -8 0 -12 5 -9
10 3 6 10 10 16 10 5 0 9 -4 9 -10z m65 0 c3 -5 1 -10 -4 -10 -6 0 -11 5 -11
10 0 6 2 10 4 10 3 0 8 -4 11 -10z m68 -15 c-7 -21 -12 -19 -10 4 0 11 5 18 9
15 4 -3 5 -11 1 -19z m-296 -2 c-4 -3 -2 -12 4 -19 12 -15 3 -37 -12 -29 -13
9 -11 55 3 55 6 0 8 -3 5 -7z m713 -3 c0 -5 -5 -10 -11 -10 -5 0 -7 5 -4 10 3
6 8 10 11 10 2 0 4 -4 4 -10z m-500 -13 c0 -7 -7 -22 -15 -33 -12 -16 -14 -17
-15 -2 0 23 11 48 21 48 5 0 9 -6 9 -13z m-901 -57 c0 -9 -6 -4 -14 10 -8 14
-14 32 -14 40 0 9 6 4 14 -10 8 -14 14 -32 14 -40z m2617 6 c15 -30 30 -53 34
-51 3 2 6 -4 6 -13 1 -9 4 -25 9 -34 4 -10 3 -18 -2 -18 -5 0 -21 22 -35 50
-14 27 -29 46 -32 42 -4 -3 -4 1 -1 9 3 9 1 28 -4 42 -17 45 -4 30 25 -27z
m-2256 23 c0 -6 -4 -7 -10 -4 -5 3 -10 11 -10 16 0 6 5 7 10 4 6 -3 10 -11 10
-16z m2470 -9 c6 -11 8 -20 6 -20 -3 0 -10 9 -16 20 -6 11 -8 20 -6 20 3 0 10
-9 16 -20z m-2105 -35 c1 -13 -2 -22 -7 -19 -4 2 -12 -5 -18 -17 -15 -27 -19
-22 -26 32 -3 28 -2 39 4 31 7 -11 11 -10 16 4 9 23 31 2 31 -31z m185 25 c0
-5 -5 -10 -11 -10 -5 0 -7 5 -4 10 3 6 8 10 11 10 2 0 4 -4 4 -10z m-490 -24
c0 -3 -4 -8 -10 -11 -5 -3 -10 -1 -10 4 0 6 5 11 10 11 6 0 10 -2 10 -4z
m2429 -51 c0 -5 -6 1 -14 15 -8 14 -14 30 -14 35 0 6 6 -1 14 -15 8 -14 14
-29 14 -35z m-1919 21 c0 -3 -4 -8 -10 -11 -5 -3 -10 -1 -10 4 0 6 5 11 10 11
6 0 10 -2 10 -4z m20 -22 c-13 -34 -13 -47 3 -37 18 11 38 13 31 2 -3 -5 -10
-6 -16 -3 -7 5 -9 2 -5 -8 6 -16 -59 -90 -97 -110 -17 -9 -17 -8 2 20 12 16
35 60 52 96 28 64 50 92 30 40z m1774 10 c3 -8 2 -12 -4 -9 -6 3 -10 10 -10
16 0 14 7 11 14 -7z m76 -14 c0 -5 -5 -10 -11 -10 -5 0 -7 5 -4 10 3 6 8 10
11 10 2 0 4 -4 4 -10z m-1695 -19 c-9 -8 -36 -10 -30 -2 2 4 11 8 20 8 8 0 13
-3 10 -6z m1536 -41 c10 -22 14 -40 9 -40 -4 0 -15 21 -24 47 -19 54 -11 51
15 -7z m135 -74 c13 -36 13 -39 0 -26 -12 13 -25 44 -51 125 -11 36 36 -56 51
-99z m53 59 c0 -5 -6 1 -14 15 -8 14 -14 30 -14 35 0 6 6 -1 14 -15 8 -14 14
-29 14 -35z m123 20 c3 -13 1 -22 -3 -19 -9 5 -13 44 -5 44 2 0 6 -11 8 -25z
m-1872 0 c-7 -9 -15 -13 -19 -10 -3 3 1 10 9 15 21 14 24 12 10 -5z m1216
-101 c-45 -172 -66 -266 -61 -274 3 -5 1 -10 -4 -12 -7 -2 -17 -52 -20 -100
-1 -5 -6 -8 -12 -8 -12 0 -10 119 2 160 33 105 55 189 50 185 -4 -2 -14 -23
-21 -46 -14 -41 -14 -41 -21 -15 -5 17 -2 44 7 69 8 23 13 50 10 60 -2 10 0
14 6 11 7 -5 9 2 5 17 -5 21 -2 25 19 27 14 1 33 6 42 11 9 5 18 8 19 7 2 -1
-8 -42 -21 -92z m59 67 c-6 -5 -25 10 -25 20 0 5 6 4 14 -3 8 -7 12 -15 11
-17z m450 -26 c9 -22 12 -35 6 -30 -5 6 -17 28 -26 50 -9 22 -12 36 -6 30 5
-5 17 -28 26 -50z m-107 20 c-3 -3 -9 2 -12 12 -6 14 -5 15 5 6 7 -7 10 -15 7
-18z m239 -7 c-3 -8 -6 -5 -6 6 -1 11 2 17 5 13 3 -3 4 -12 1 -19z m-617 -54
c-16 -78 -40 -157 -46 -151 -3 2 7 52 22 111 28 112 44 139 24 40z m355 46
c-3 -5 -1 -19 5 -31 7 -11 9 -23 7 -25 -3 -3 -12 8 -20 25 -11 22 -12 31 -3
35 17 7 18 7 11 -4z m-1955 -4 c0 -2 -8 -10 -17 -17 -16 -13 -17 -12 -4 4 13
16 21 21 21 13z m319 -36 c-18 -22 -34 -40 -36 -40 -8 0 52 80 60 80 4 0 -7
-18 -24 -40z m1875 -119 c-14 -53 -28 -98 -30 -100 -12 -12 -1 53 16 105 11
32 18 64 15 72 -2 7 0 10 5 7 6 -3 10 1 10 10 0 9 -4 14 -9 11 -4 -3 -6 7 -3
22 l5 27 8 -29 c6 -20 0 -58 -17 -125z m-146 77 c6 -16 10 -28 7 -28 -6 0 -45
76 -45 87 0 11 24 -27 38 -59z m84 16 c-9 -16 -10 -14 -9 8 1 15 6 23 11 18 4
-4 4 -16 -2 -26z m-118 -10 c3 -8 2 -12 -4 -9 -6 3 -10 10 -10 16 0 14 7 11
14 -7z m80 0 c3 -8 2 -12 -4 -9 -6 3 -10 10 -10 16 0 14 7 11 14 -7z m65 -46
c-1 -24 -3 -34 -6 -23 -3 11 -9 24 -14 30 -5 5 -9 14 -9 20 0 5 5 3 10 -5 8
-13 10 -12 10 3 0 9 2 17 5 17 3 0 4 -19 4 -42z m-53 -3 c1 -8 -2 -15 -7 -15
-5 0 -9 10 -9 22 0 23 12 17 16 -7z m-626 -72 c0 -39 -14 -72 -25 -61 -6 6 14
98 21 98 2 0 4 -17 4 -37z m-23 -95 c-3 -8 -6 -5 -6 6 -1 11 2 17 5 13 3 -3 4
-12 1 -19z m-75 -50 c-8 -8 -9 -4 -5 13 4 13 8 18 11 10 2 -7 -1 -18 -6 -23z
m61 -35 c-3 -18 -9 -33 -14 -33 -12 0 -11 14 3 45 14 32 17 29 11 -12z m-72
-16 c-8 -8 -11 -7 -11 4 0 20 13 34 18 19 3 -7 -1 -17 -7 -23z m173 -24 c-10
-40 -15 -42 -12 -5 1 18 6 32 10 32 5 0 5 -12 2 -27z m-180 -30 c-19 -117 -23
-129 -19 -53 3 41 5 78 5 83 0 4 4 7 10 7 6 0 7 -15 4 -37z m245 -69 c26 -44
27 -65 2 -39 -18 19 -39 75 -28 75 3 0 14 -16 26 -36z m-92 -36 c-3 -8 -6 -5
-6 6 -1 11 2 17 5 13 3 -3 4 -12 1 -19z m99 -35 c15 -24 15 -26 1 -14 -21 17
-22 3 -2 -23 8 -11 15 -27 15 -35 0 -19 -25 14 -40 54 -7 19 -7 24 2 19 8 -5
9 -2 5 9 -9 25 -2 21 19 -10z m-86 -80 c16 -43 18 -59 9 -67 -9 -8 -10 -8 -6
0 4 7 1 27 -7 45 -19 48 -28 79 -22 79 2 0 14 -25 26 -57z m275 -73 l7 -25
-19 25 c-11 14 -23 39 -26 55 -3 17 -8 39 -11 50 -4 11 5 -2 18 -30 13 -27 27
-61 31 -75z m-396 55 c0 -5 -6 1 -14 15 -8 14 -14 30 -14 35 0 6 6 -1 14 -15
8 -14 14 -29 14 -35z m266 24 c10 -30 0 -33 -13 -4 -6 14 -7 25 -2 25 5 0 12
-9 15 -21z m-60 -39 c26 -41 35 -70 12 -35 -35 51 -49 75 -43 75 3 0 17 -18
31 -40z m54 -28 c0 -24 -1 -25 -9 -7 -12 28 -12 47 0 40 6 -3 10 -18 9 -33z
m-39 -47 c0 -5 -9 4 -20 20 -11 17 -20 35 -20 40 0 6 9 -3 20 -20 11 -16 20
-34 20 -40z m130 49 c0 -8 -19 -13 -24 -6 -3 5 1 9 9 9 8 0 15 -2 15 -3z m-67
-34 c3 -11 1 -18 -4 -14 -5 3 -9 12 -9 20 0 20 7 17 13 -6z m44 -22 c-3 -8 -6
-5 -6 6 -1 11 2 17 5 13 3 -3 4 -12 1 -19z m-172 -8 c10 -11 16 -20 13 -20 -3
0 -13 9 -23 20 -10 11 -16 20 -13 20 3 0 13 -9 23 -20z m104 -12 c6 -18 7 -28
2 -23 -10 12 -25 55 -18 55 3 0 10 -15 16 -32z m31 -13 c7 -9 8 -15 2 -15 -5
0 -12 7 -16 15 -3 8 -4 15 -2 15 2 0 9 -7 16 -15z m-170 -35 c0 -13 -11 -13
-30 0 -12 8 -11 10 8 10 12 0 22 -4 22 -10z m20 -20 c-8 -5 -19 -10 -25 -10
-5 0 -3 5 5 10 8 5 20 10 25 10 6 0 3 -5 -5 -10z"/>
<path d="M4460 7482 c0 -5 -9 -18 -20 -29 -10 -12 -33 -44 -51 -72 -25 -42
-29 -54 -19 -67 11 -12 16 -6 36 42 12 30 34 73 48 95 15 21 22 39 16 39 -5 0
-10 -4 -10 -8z"/>
<path d="M5330 7602 c0 -6 9 -12 20 -15 11 -3 20 -3 20 -1 0 2 -9 8 -20 14
-11 6 -20 7 -20 2z"/>
<path d="M5251 7570 c0 -8 4 -22 9 -30 12 -18 12 -2 0 25 -6 13 -9 15 -9 5z"/>
<path d="M5305 7530 c21 -22 41 -40 44 -40 3 0 -13 18 -34 40 -21 22 -41 40
-44 40 -3 0 13 -18 34 -40z"/>
<path d="M5420 7470 c17 -22 34 -40 37 -40 2 0 -10 18 -27 40 -17 22 -34 40
-37 40 -2 0 10 -18 27 -40z"/>
<path d="M5190 7466 c0 -2 7 -7 16 -10 8 -3 12 -2 9 4 -6 10 -25 14 -25 6z"/>
<path d="M5079 7353 c-13 -17 -13 -17 6 -3 11 8 22 16 24 17 2 2 0 3 -6 3 -6
0 -17 -8 -24 -17z"/>
<path d="M4989 7283 c-13 -16 -12 -17 4 -4 16 13 21 21 13 21 -2 0 -10 -8 -17
-17z"/>
<path d="M4919 7244 c-5 -15 -8 -29 -5 -31 2 -2 8 10 14 26 13 38 5 41 -9 5z"/>
<path d="M4954 7238 l-19 -23 23 19 c21 18 27 26 19 26 -2 0 -12 -10 -23 -22z"/>
<path d="M4811 7177 c-13 -21 -12 -21 5 -5 10 10 16 20 13 22 -3 3 -11 -5 -18
-17z"/>
<path d="M4983 7148 c-11 -13 -24 -30 -28 -38 -8 -16 -6 -14 34 33 14 15 22
27 19 27 -2 0 -14 -10 -25 -22z"/>
<path d="M4490 6649 c-7 -11 -10 -23 -7 -25 2 -2 9 7 15 21 14 30 7 33 -8 4z"/>
<path d="M4391 6346 c24 -19 46 -33 49 -30 2 3 -3 10 -13 15 -9 6 -14 15 -11
21 4 6 3 8 -3 5 -6 -4 -19 0 -29 8 -41 31 -34 13 7 -19z"/>
<path d="M4366 5775 c-53 -19 -91 -48 -93 -71 -2 -16 -1 -16 3 -1 6 19 82 67
107 67 9 0 19 5 22 10 8 12 9 12 -39 -5z"/>
<path d="M4425 5679 c-4 -6 -5 -12 -2 -15 2 -3 7 2 10 11 7 17 1 20 -8 4z"/>
<path d="M4411 5634 c0 -11 3 -14 6 -6 3 7 2 16 -1 19 -3 4 -6 -2 -5 -13z"/>
<path d="M4505 5449 c-3 -4 2 -6 10 -5 21 3 28 13 10 13 -9 0 -18 -4 -20 -8z"/>
<path d="M4486 5415 c-2 -6 2 -12 10 -12 7 0 15 6 18 12 2 6 -2 12 -10 12 -7
0 -15 -6 -18 -12z"/>
<path d="M4475 5377 c-10 -8 -15 -19 -12 -24 4 -6 0 -13 -8 -17 -8 -3 -15 -13
-14 -23 0 -14 2 -15 6 -3 3 8 12 18 19 23 7 4 10 15 7 24 -4 10 -2 14 4 10 6
-4 13 0 17 8 7 18 5 19 -19 2z"/>
<path d="M4565 5309 c-4 -6 -5 -12 -2 -15 2 -3 7 2 10 11 7 17 1 20 -8 4z"/>
<path d="M4425 5279 c-4 -6 -5 -12 -2 -15 2 -3 7 2 10 11 7 17 1 20 -8 4z"/>
<path d="M4442 5250 c0 -14 2 -19 5 -12 2 6 2 18 0 25 -3 6 -5 1 -5 -13z"/>
<path d="M4650 5250 c6 -11 13 -20 16 -20 2 0 0 9 -6 20 -6 11 -13 20 -16 20
-2 0 0 -9 6 -20z"/>
<path d="M4581 5244 c0 -11 3 -14 6 -6 3 7 2 16 -1 19 -3 4 -6 -2 -5 -13z"/>
<path d="M4536 5235 c-9 -26 -7 -32 5 -12 6 10 9 21 6 23 -2 3 -7 -2 -11 -11z"/>
<path d="M4910 5221 c0 -6 4 -13 10 -16 6 -3 7 1 4 9 -7 18 -14 21 -14 7z"/>
<path d="M4571 5204 c0 -11 3 -14 6 -6 3 7 2 16 -1 19 -3 4 -6 -2 -5 -13z"/>
<path d="M4670 5213 c0 -6 6 -16 14 -23 8 -6 12 -19 10 -28 -5 -15 -4 -15 6 0
9 14 7 22 -10 40 -11 12 -20 17 -20 11z"/>
<path d="M4681 5124 c0 -11 3 -14 6 -6 3 7 2 16 -1 19 -3 4 -6 -2 -5 -13z"/>
<path d="M4671 5084 c0 -11 3 -14 6 -6 3 7 2 16 -1 19 -3 4 -6 -2 -5 -13z"/>
<path d="M4771 5084 c0 -11 3 -14 6 -6 3 7 2 16 -1 19 -3 4 -6 -2 -5 -13z"/>
<path d="M4736 5075 c-9 -26 -7 -32 5 -12 6 10 9 21 6 23 -2 3 -7 -2 -11 -11z"/>
<path d="M4580 5056 c0 -8 4 -17 9 -20 5 -4 7 3 4 14 -6 23 -13 26 -13 6z"/>
<path d="M4845 5060 c-3 -5 -4 -14 -1 -19 3 -5 -1 -11 -9 -15 -8 -3 -15 -11
-14 -18 0 -10 2 -10 6 0 2 6 9 10 14 6 5 -3 9 -2 10 3 0 4 2 18 3 31 3 24 0
27 -9 12z"/>
<path d="M4761 5048 c0 -9 -4 -25 -7 -35 -5 -17 -5 -17 6 0 6 10 9 25 7 35 -4
15 -5 15 -6 0z"/>
<path d="M4661 5034 c0 -11 3 -14 6 -6 3 7 2 16 -1 19 -3 4 -6 -2 -5 -13z"/>
<path d="M4606 5023 c-6 -14 -5 -15 5 -6 7 7 10 15 7 18 -3 3 -9 -2 -12 -12z"/>
<path d="M4984 4998 l-19 -23 23 19 c21 18 27 26 19 26 -2 0 -12 -10 -23 -22z"/>
<path d="M4736 4973 c-6 -14 -5 -15 5 -6 7 7 10 15 7 18 -3 3 -9 -2 -12 -12z"/>
<path d="M4860 4976 c0 -2 7 -7 16 -10 8 -3 12 -2 9 4 -6 10 -25 14 -25 6z"/>
<path d="M4716 4946 c7 -31 -11 -35 -33 -8 -13 15 -13 15 -3 -5 7 -15 18 -22
33 -21 25 2 30 28 9 47 -10 10 -12 8 -6 -13z"/>
<path d="M4764 4918 l-19 -23 23 19 c12 11 22 21 22 23 0 8 -8 2 -26 -19z"/>
<path d="M4908 4883 c7 -3 16 -2 19 1 4 3 -2 6 -13 5 -11 0 -14 -3 -6 -6z"/>
<path d="M5600 7479 c0 -4 11 -27 25 -50 14 -24 25 -39 25 -34 0 11 -49 94
-50 84z"/>
<path d="M5662 7349 c6 -16 12 -28 14 -26 5 5 -13 57 -20 57 -3 0 0 -14 6 -31z"/>
<path d="M4099 6129 c0 -8 -2 -23 -5 -34 -12 -56 -4 -228 15 -324 11 -57 23
-107 27 -110 3 -3 4 8 0 24 -6 33 -13 74 -26 149 -9 56 -14 253 -6 245 3 -2 6
-26 7 -51 2 -26 6 -45 10 -42 5 2 6 10 4 17 -2 7 -6 38 -8 70 -5 53 -16 90
-18 56z"/>
<path d="M4123 5935 c0 -22 2 -30 4 -17 2 12 2 30 0 40 -3 9 -5 -1 -4 -23z"/>
<path d="M4121 5874 c0 -11 3 -14 6 -6 3 7 2 16 -1 19 -3 4 -6 -2 -5 -13z"/>
<path d="M4131 5834 c0 -11 3 -14 6 -6 3 7 2 16 -1 19 -3 4 -6 -2 -5 -13z"/>
<path d="M4132 5790 c0 -14 2 -19 5 -12 2 6 2 18 0 25 -3 6 -5 1 -5 -13z"/>
<path d="M4142 5730 c0 -14 2 -19 5 -12 2 6 2 18 0 25 -3 6 -5 1 -5 -13z"/>
<path d="M4146 5652 c-4 -13 -5 -26 -2 -29 3 -4 6 2 7 13 0 12 6 6 14 -16 7
-19 14 -28 14 -20 0 8 -6 29 -13 45 -13 30 -13 30 -20 7z"/>
<path d="M4151 5600 c0 -8 4 -22 9 -30 12 -18 12 -2 0 25 -6 13 -9 15 -9 5z"/>
<path d="M4230 5316 c0 -3 11 -24 25 -46 27 -42 31 -55 15 -45 -20 12 -9 -14
31 -74 43 -65 179 -215 187 -207 2 3 -15 24 -40 48 -78 77 -172 201 -166 219
2 6 21 -15 43 -47 22 -32 47 -65 56 -73 8 -9 39 -44 69 -79 53 -62 69 -92 47
-92 -17 0 159 -119 188 -126 6 -2 48 -16 95 -33 84 -29 210 -47 210 -29 0 5
-6 8 -12 7 -34 -7 -151 16 -218 42 -118 45 -217 127 -296 247 -37 54 -47 64
-38 35 5 -15 3 -14 -10 2 -9 11 -24 29 -33 40 -10 11 -46 63 -81 115 -72 106
-72 106 -72 96z m306 -403 c-10 -11 -19 -7 -22 10 -2 15 0 16 12 6 8 -6 12
-14 10 -16z"/>
<path d="M5125 6849 c-4 -6 -5 -12 -2 -15 2 -3 7 2 10 11 7 17 1 20 -8 4z"/>
<path d="M4617 6732 c1 -8 3 -16 3 -18 0 -2 4 -4 8 -4 5 0 9 7 9 15 0 8 -4 12
-8 9 -4 -2 -9 -1 -12 3 -2 5 -2 2 0 -5z"/>
<path d="M5994 6430 c4 -47 7 -107 8 -133 1 -26 4 -50 8 -52 4 -3 6 12 5 33
-2 20 -6 80 -10 132 -4 52 -9 97 -12 100 -3 3 -2 -33 1 -80z"/>
<path d="M6064 6466 c1 -26 6 -41 16 -43 10 -3 11 -2 3 4 -6 4 -13 24 -16 43
-4 34 -4 33 -3 -4z"/>
<path d="M6060 6403 c0 -3 7 -11 15 -19 13 -14 15 -13 15 4 0 10 -7 19 -15 19
-8 0 -15 -2 -15 -4z"/>
<path d="M6180 6376 c0 -8 4 -17 9 -20 5 -4 7 3 4 14 -6 23 -13 26 -13 6z"/>
<path d="M6067 6329 c4 -13 8 -18 11 -10 2 7 -1 18 -6 23 -8 8 -9 4 -5 -13z"/>
<path d="M6191 6304 c0 -11 3 -14 6 -6 3 7 2 16 -1 19 -3 4 -6 -2 -5 -13z"/>
<path d="M6050 6305 c0 -5 5 -17 10 -25 5 -8 10 -10 10 -5 0 6 -5 17 -10 25
-5 8 -10 11 -10 5z"/>
<path d="M6043 6242 c-1 -22 0 -24 9 -8 6 10 6 22 2 26 -5 5 -10 -3 -11 -18z"/>
<path d="M6006 6095 c1 -75 4 -138 7 -141 3 -3 6 58 6 135 1 78 -2 141 -6 141
-4 0 -7 -61 -7 -135z"/>
<path d="M5920 6070 c0 -11 4 -20 9 -20 6 0 9 9 8 20 -1 11 -5 20 -9 20 -4 0
-8 -9 -8 -20z"/>
<path d="M5920 5999 c0 -22 4 -38 8 -35 8 5 4 76 -4 76 -2 0 -4 -18 -4 -41z"/>
<path d="M5920 5939 c0 -5 5 -7 10 -4 6 3 10 8 10 11 0 2 -4 4 -10 4 -5 0 -10
-5 -10 -11z"/>
<path d="M5920 5879 c0 -22 4 -38 8 -35 8 5 4 76 -4 76 -2 0 -4 -18 -4 -41z"/>
<path d="M6052 5815 c-1 -28 -6 -65 -11 -83 -5 -17 -6 -32 -1 -32 12 0 22 76
17 125 -3 38 -4 37 -5 -10z"/>
<path d="M6450 5811 c0 -6 4 -13 10 -16 6 -3 7 1 4 9 -7 18 -14 21 -14 7z"/>
<path d="M6072 5628 c-7 -7 -12 -17 -12 -22 0 -6 5 -4 11 4 9 12 10 11 6 -7
-3 -13 -1 -23 4 -23 5 0 9 14 9 30 0 34 -1 35 -18 18z"/>
<path d="M6070 5556 c0 -8 -3 -23 -6 -33 -5 -15 -4 -15 7 2 17 25 20 45 8 45
-5 0 -9 -6 -9 -14z"/>
<path d="M6866 6455 c4 -8 11 -15 16 -15 6 0 5 6 -2 15 -7 8 -14 15 -16 15 -2
0 -1 -7 2 -15z"/>
<path d="M6875 6125 c0 -36 3 -65 8 -65 4 0 7 29 7 65 0 36 -3 65 -7 65 -5 0
-8 -29 -8 -65z"/>
<path d="M5124 6414 c21 -19 40 -34 42 -31 5 5 -62 67 -73 67 -4 0 10 -16 31
-36z"/>
<path d="M5211 6254 c0 -11 3 -14 6 -6 3 7 2 16 -1 19 -3 4 -6 -2 -5 -13z"/>
<path d="M4965 6380 c-3 -5 -5 -10 -3 -11 33 -8 38 -7 27 7 -14 17 -16 17 -24
4z"/>
<path d="M7260 6180 c8 -5 20 -10 25 -10 6 0 3 5 -5 10 -8 5 -19 10 -25 10 -5
0 -3 -5 5 -10z"/>
<path d="M7293 5424 c0 -16 6 -17 25 -5 11 6 9 9 -5 13 -12 3 -20 0 -20 -8z"/>
<path d="M5385 6201 c-3 -5 -1 -12 5 -16 5 -3 10 1 10 9 0 18 -6 21 -15 7z"/>
<path d="M5475 6321 c-3 -5 -2 -12 3 -15 5 -3 9 1 9 9 0 17 -3 19 -12 6z"/>
<path d="M7816 6077 c3 -10 9 -15 12 -12 3 3 0 11 -7 18 -10 9 -11 8 -5 -6z"/>
<path d="M7861 6074 c0 -11 3 -14 6 -6 3 7 2 16 -1 19 -3 4 -6 -2 -5 -13z"/>
<path d="M7814 5958 c10 -23 12 -39 6 -43 -6 -3 -10 -11 -10 -17 0 -7 5 -6 15
2 17 14 11 56 -12 80 -11 12 -11 8 1 -22z"/>
<path d="M5407 5911 c-4 -17 -3 -21 5 -13 5 5 8 16 6 23 -3 8 -7 3 -11 -10z"/>
<path d="M5035 5746 c1 -12 3 -26 4 -32 0 -6 8 -11 16 -11 10 0 14 6 10 14 -3
8 -5 23 -5 32 0 10 -6 18 -14 18 -7 0 -12 -9 -11 -21z"/>
<path d="M4630 5780 c0 -5 5 -10 11 -10 5 0 7 5 4 10 -3 6 -8 10 -11 10 -2 0
-4 -4 -4 -10z"/>
<path d="M4555 5600 c-3 -6 1 -7 9 -4 18 7 21 14 7 14 -6 0 -13 -4 -16 -10z"/>
<path d="M4631 5443 c-10 -26 -10 -27 4 -9 8 11 15 23 15 28 0 15 -7 8 -19
-19z"/>
<path d="M4649 5393 c-13 -16 -12 -17 4 -4 16 13 21 21 13 21 -2 0 -10 -8 -17
-17z"/>
<path d="M4750 5301 c0 -6 5 -13 10 -16 6 -3 10 1 10 9 0 9 -4 16 -10 16 -5 0
-10 -4 -10 -9z"/>
<path d="M4821 5634 c0 -11 3 -14 6 -6 3 7 2 16 -1 19 -3 4 -6 -2 -5 -13z"/>
<path d="M4641 5583 c0 -11 3 -13 6 -5 2 6 9 10 14 6 5 -3 9 0 9 5 0 6 -7 11
-15 11 -8 0 -15 -8 -14 -17z"/>
<path d="M4851 5534 c0 -11 3 -14 6 -6 3 7 2 16 -1 19 -3 4 -6 -2 -5 -13z"/>
<path d="M5070 5320 c0 -5 5 -10 11 -10 5 0 7 5 4 10 -3 6 -8 10 -11 10 -2 0
-4 -4 -4 -10z"/>
<path d="M6907 4938 c3 -18 24 -81 47 -140 24 -59 39 -105 35 -102 -15 9 -10
-5 15 -49 28 -49 48 -115 37 -122 -5 -2 -6 -16 -3 -30 6 -35 -4 -31 -17 5 -6
18 -6 28 -1 25 15 -9 12 -2 -15 48 -33 58 -76 182 -70 199 6 15 -11 45 -20 36
-4 -3 2 -36 13 -72 11 -36 18 -66 16 -66 -7 0 -34 66 -49 120 -15 54 -15 54
-11 13 2 -24 0 -43 -4 -43 -4 0 -2 -28 6 -63 7 -35 13 -85 13 -113 -1 -57 24
-129 70 -199 l32 -50 -6 39 c-3 21 -10 46 -15 55 -12 21 -50 135 -50 147 0 5
14 -7 30 -26 16 -19 29 -30 29 -25 0 6 -13 25 -28 43 -26 31 -30 32 -35 15 -4
-11 7 -57 23 -104 32 -89 15 -82 -19 8 -23 61 -24 76 -10 104 8 14 7 25 -4 41
-7 13 -16 41 -19 63 l-5 40 17 -35 c9 -19 33 -65 54 -102 21 -37 35 -72 32
-79 -7 -11 31 -59 47 -59 4 0 8 7 8 16 0 8 5 12 11 8 11 -6 8 25 -7 78 -4 14
-1 16 12 11 12 -4 15 -3 10 5 -4 7 -3 12 1 12 14 0 7 72 -11 112 -9 21 -16 42
-16 48 0 6 -5 8 -10 5 -6 -4 -20 14 -31 40 -11 26 -23 44 -26 41 -3 -3 13 -38
34 -78 38 -70 60 -128 48 -128 -11 0 -135 266 -141 303 -4 20 -10 37 -14 37
-5 0 -6 -15 -3 -32z m138 -310 l16 -33 -20 25 c-20 24 -26 40 -16 40 2 0 12
-15 20 -32z"/>
<path d="M6940 4765 c0 -13 32 -66 36 -62 6 6 -23 67 -31 67 -3 0 -5 -2 -5 -5z"/>
<path d="M6975 4169 c-16 -10 -25 -19 -19 -19 7 0 22 9 35 20 30 24 23 24 -16
-1z"/>
<path d="M7480 6510 c19 -13 30 -13 30 0 0 6 -10 10 -22 10 -19 0 -20 -2 -8
-10z"/>
<path d="M7323 6503 c9 -2 23 -2 30 0 6 3 -1 5 -18 5 -16 0 -22 -2 -12 -5z"/>
<path d="M6678 4083 c6 -2 18 -2 25 0 6 3 1 5 -13 5 -14 0 -19 -2 -12 -5z"/>
</g>
</svg>
